<svg width="15" height="16" viewBox="0 0 15 16" fill="none" xmlns="http://www.w3.org/2000/svg">
<path d="M12.0538 8.27998L7.93377 12.4066C7.39364 12.8867 6.69053 13.1422 5.96825 13.1209C5.24596 13.0996 4.5591 12.8032 4.04815 12.2923C3.5372 11.7813 3.24077 11.0944 3.21951 10.3722C3.19825 9.64988 3.45375 8.94677 3.93377 8.40664L9.2671 3.07331C9.58552 2.77084 10.0079 2.6022 10.4471 2.6022C10.8863 2.6022 11.3087 2.77084 11.6271 3.07331C11.9373 3.38771 12.1113 3.81163 12.1113 4.25331C12.1113 4.695 11.9373 5.11892 11.6271 5.43331L7.0271 10.0266C6.98157 10.0757 6.92684 10.1153 6.86602 10.1431C6.8052 10.171 6.73948 10.1866 6.67262 10.1891C6.60576 10.1916 6.53907 10.1809 6.47636 10.1576C6.41364 10.1343 6.35613 10.0988 6.3071 10.0533C6.25807 10.0078 6.21849 9.95305 6.19062 9.89223C6.16275 9.83141 6.14712 9.76569 6.14465 9.69884C6.14217 9.63198 6.15289 9.56529 6.17619 9.50257C6.19948 9.43985 6.23491 9.38234 6.28043 9.33331L9.70043 5.91998C9.82597 5.79444 9.89649 5.62418 9.89649 5.44665C9.89649 5.26911 9.82597 5.09885 9.70043 4.97331C9.5749 4.84778 9.40463 4.77725 9.2271 4.77725C9.04956 4.77725 8.8793 4.84778 8.75377 4.97331L5.33377 8.39998C5.16264 8.56978 5.02681 8.77178 4.93412 8.99433C4.84143 9.21687 4.79371 9.45557 4.79371 9.69665C4.79371 9.93772 4.84143 10.1764 4.93412 10.399C5.02681 10.6215 5.16264 10.8235 5.33377 10.9933C5.68335 11.3263 6.14764 11.512 6.63043 11.512C7.11323 11.512 7.57752 11.3263 7.9271 10.9933L12.5204 6.39331C13.0504 5.82461 13.3388 5.07243 13.3251 4.29522C13.3114 3.51802 12.9966 2.77648 12.4469 2.22682C11.8973 1.67717 11.1557 1.36232 10.3785 1.34861C9.60132 1.3349 8.84913 1.62339 8.28043 2.15331L2.9471 7.48664C2.2279 8.2832 1.84378 9.32655 1.87479 10.3993C1.90579 11.472 2.34952 12.4915 3.11352 13.2452C3.87753 13.9988 4.90288 14.4287 5.97596 14.4451C7.04903 14.4615 8.08706 14.0633 8.87377 13.3333L13.0004 9.21331C13.0626 9.15115 13.1119 9.07736 13.1455 8.99614C13.1792 8.91493 13.1965 8.82788 13.1965 8.73998C13.1965 8.65207 13.1792 8.56503 13.1455 8.48381C13.1119 8.4026 13.0626 8.3288 13.0004 8.26664C12.9383 8.20449 12.8645 8.15518 12.7833 8.12154C12.7021 8.0879 12.615 8.07058 12.5271 8.07058C12.4392 8.07058 12.3521 8.0879 12.2709 8.12154C12.1897 8.15518 12.1159 8.20449 12.0538 8.26664V8.27998Z" fill="inherit"/>
</svg>
