<svg width="24" height="24" viewBox="0 0 24 24" fill="none" xmlns="http://www.w3.org/2000/svg">
<path d="M7.4199 15.5409C7.23365 15.7282 7.12911 15.9817 7.12911 16.2459C7.12911 16.5101 7.23365 16.7635 7.4199 16.9509C7.51286 17.0446 7.62346 17.119 7.74532 17.1698C7.86718 17.2205 7.99789 17.2467 8.1299 17.2467C8.26191 17.2467 8.39262 17.2205 8.51448 17.1698C8.63633 17.119 8.74694 17.0446 8.8399 16.9509C9.02615 16.7635 9.13069 16.5101 9.13069 16.2459C9.13069 15.9817 9.02615 15.7282 8.8399 15.5409C8.74694 15.4471 8.63633 15.3727 8.51448 15.322C8.39262 15.2712 8.26191 15.2451 8.1299 15.2451C7.99789 15.2451 7.86718 15.2712 7.74532 15.322C7.62346 15.3727 7.51286 15.4471 7.4199 15.5409ZM7.4199 7.05087C7.23365 7.23823 7.12911 7.49169 7.12911 7.75587C7.12911 8.02006 7.23365 8.27351 7.4199 8.46087C7.51286 8.5546 7.62346 8.62899 7.74532 8.67976C7.86718 8.73053 7.99789 8.75667 8.1299 8.75667C8.26191 8.75667 8.39262 8.73053 8.51448 8.67976C8.63633 8.62899 8.74694 8.5546 8.8399 8.46087C9.02615 8.27351 9.13069 8.02006 9.13069 7.75587C9.13069 7.49169 9.02615 7.23823 8.8399 7.05087C8.74694 6.95714 8.63633 6.88275 8.51448 6.83198C8.39262 6.78121 8.26191 6.75507 8.1299 6.75507C7.99789 6.75507 7.86718 6.78121 7.74532 6.83198C7.62346 6.88275 7.51286 6.95714 7.4199 7.05087ZM12.3699 17.0509C12.1721 17.0509 11.9788 17.1095 11.8143 17.2194C11.6499 17.3293 11.5217 17.4855 11.446 17.6682C11.3703 17.8509 11.3505 18.052 11.3891 18.246C11.4277 18.4399 11.5229 18.6181 11.6628 18.758C11.8026 18.8978 11.9808 18.9931 12.1748 19.0317C12.3688 19.0702 12.5699 19.0504 12.7526 18.9748C12.9353 18.8991 13.0915 18.7709 13.2014 18.6064C13.3112 18.442 13.3699 18.2487 13.3699 18.0509C13.3767 17.9154 13.3558 17.78 13.3086 17.6528C13.2614 17.5257 13.1888 17.4094 13.0953 17.3112C13.0017 17.213 12.8892 17.1348 12.7645 17.0815C12.6398 17.0281 12.5055 17.0007 12.3699 17.0009V17.0509ZM6.3699 11.0509C6.17212 11.0509 5.97878 11.1095 5.81433 11.2194C5.64988 11.3293 5.52171 11.4855 5.44602 11.6682C5.37033 11.8509 5.35053 12.052 5.38911 12.246C5.4277 12.4399 5.52294 12.6181 5.66279 12.758C5.80264 12.8978 5.98083 12.9931 6.17481 13.0317C6.36879 13.0702 6.56986 13.0504 6.75258 12.9748C6.93531 12.8991 7.09149 12.7709 7.20137 12.6064C7.31125 12.442 7.3699 12.2487 7.3699 12.0509C7.37668 11.9154 7.35583 11.78 7.30862 11.6528C7.26141 11.5257 7.18883 11.4094 7.09529 11.3112C7.00174 11.213 6.8892 11.1348 6.76449 11.0815C6.63979 11.0281 6.50554 11.0007 6.3699 11.0009V11.0509ZM12.3699 5.05087C12.1721 5.05087 11.9788 5.10952 11.8143 5.2194C11.6499 5.32928 11.5217 5.48546 11.446 5.66819C11.3703 5.85091 11.3505 6.05198 11.3891 6.24596C11.4277 6.43994 11.5229 6.61813 11.6628 6.75798C11.8026 6.89783 11.9808 6.99307 12.1748 7.03166C12.3688 7.07024 12.5699 7.05044 12.7526 6.97475C12.9353 6.89906 13.0915 6.77089 13.2014 6.60644C13.3112 6.44199 13.3699 6.24865 13.3699 6.05087C13.3767 5.9154 13.3558 5.77997 13.3086 5.65282C13.2614 5.52566 13.1888 5.40944 13.0953 5.31122C13.0017 5.213 12.8892 5.13483 12.7645 5.08148C12.6398 5.02813 12.5055 5.0007 12.3699 5.00087V5.05087ZM15.9099 7.10087C15.7695 7.24049 15.6736 7.41866 15.6346 7.6128C15.5955 7.80694 15.6149 8.00832 15.6905 8.19139C15.766 8.37446 15.8941 8.53099 16.0587 8.64113C16.2233 8.75128 16.4169 8.81008 16.6149 8.81008C16.8129 8.81008 17.0065 8.75128 17.1711 8.64113C17.3357 8.53099 17.4638 8.37446 17.5393 8.19139C17.6149 8.00832 17.6343 7.80694 17.5952 7.6128C17.5562 7.41866 17.4603 7.24049 17.3199 7.10087C17.1392 6.90783 16.8895 6.79419 16.6252 6.78482C16.361 6.77545 16.1038 6.87111 15.9099 7.05087V7.10087ZM22.2099 7.10087C21.2956 5.27317 19.8903 3.73629 18.1515 2.66257C16.4127 1.58885 14.4091 1.02075 12.3655 1.02197C10.3219 1.0232 8.31902 1.59369 6.58148 2.66949C4.84395 3.74528 3.44045 5.28384 2.52838 7.11263C1.61631 8.94143 1.23172 10.9881 1.41774 13.0233C1.60377 15.0584 2.35305 17.0015 3.58157 18.6346C4.81008 20.2677 6.46926 21.5263 8.37304 22.2693C10.2768 23.0123 12.3499 23.2102 14.3599 22.8409C14.8653 22.7458 15.3468 22.5509 15.776 22.2676C16.2053 21.9842 16.5737 21.6182 16.8599 21.1909C17.1682 20.7263 17.381 20.2049 17.4857 19.6572C17.5905 19.1095 17.5851 18.5465 17.4699 18.0009C17.4069 17.6712 17.3735 17.3365 17.3699 17.0009C17.3743 16.0318 17.6602 15.0849 18.1928 14.2754C18.7254 13.4658 19.4817 12.8285 20.3699 12.4409C20.8488 12.2265 21.2786 11.9162 21.6329 11.5292C21.9872 11.1422 22.2585 10.6867 22.4299 10.1909C22.6033 9.68416 22.6732 9.14778 22.6354 8.61355C22.5976 8.07933 22.4529 7.55813 22.2099 7.08087V7.10087ZM20.5099 9.54087C20.4246 9.78019 20.2921 9.99996 20.1203 10.1872C19.9486 10.3744 19.741 10.5253 19.5099 10.6309C18.2799 11.1815 17.2349 12.0754 16.5006 13.2054C15.7662 14.3353 15.3736 15.6532 15.3699 17.0009C15.3714 17.471 15.4183 17.9398 15.5099 18.4009C15.571 18.6827 15.575 18.9738 15.5218 19.2572C15.4685 19.5406 15.3591 19.8105 15.1999 20.0509C15.0652 20.2613 14.888 20.4411 14.6796 20.5789C14.4712 20.7167 14.2362 20.8093 13.9899 20.8509C13.4558 20.9512 12.9134 21.0015 12.3699 21.0009C11.1641 21.0015 9.97041 20.7597 8.85982 20.29C7.74923 19.8203 6.74435 19.1322 5.90486 18.2666C5.06537 17.401 4.40838 16.3755 3.97291 15.2511C3.53745 14.1266 3.33238 12.9261 3.3699 11.7209C3.44751 9.47366 4.3589 7.33582 5.92653 5.72383C7.49415 4.11184 9.60573 3.14115 11.8499 3.00087H12.3599C14.0357 3.00129 15.678 3.46956 17.102 4.35294C18.526 5.23632 19.6751 6.49972 20.4199 8.00087C20.6491 8.47585 20.6815 9.02216 20.5099 9.52087V9.54087ZM12.3699 11.0009C12.1721 11.0009 11.9788 11.0595 11.8143 11.1694C11.6499 11.2793 11.5217 11.4355 11.446 11.6182C11.3703 11.8009 11.3505 12.002 11.3891 12.196C11.4277 12.3899 11.5229 12.5681 11.6628 12.708C11.8026 12.8478 11.9808 12.9431 12.1748 12.9817C12.3688 13.0202 12.5699 13.0004 12.7526 12.9248C12.9353 12.8491 13.0915 12.7209 13.2014 12.5564C13.3112 12.392 13.3699 12.1987 13.3699 12.0009C13.3699 11.7357 13.2645 11.4813 13.077 11.2938C12.8895 11.1062 12.6351 11.0009 12.3699 11.0009Z" fill="inherit"/>
</svg>
