<svg width="15" height="16" viewBox="0 0 15 16" fill="none" xmlns="http://www.w3.org/2000/svg">
<path d="M4.19378 6.47333C4.25576 6.53582 4.32949 6.58542 4.41073 6.61926C4.49197 6.65311 4.57911 6.67053 4.66712 6.67053C4.75512 6.67053 4.84226 6.65311 4.9235 6.61926C5.00474 6.58542 5.07847 6.53582 5.14045 6.47333C5.20293 6.41136 5.25253 6.33762 5.28638 6.25638C5.32022 6.17515 5.33765 6.08801 5.33765 6C5.33765 5.91199 5.32022 5.82485 5.28638 5.74362C5.25253 5.66238 5.20293 5.58864 5.14045 5.52667L3.80712 4.19333C3.74371 4.13264 3.66895 4.08506 3.58712 4.05333C3.42481 3.98665 3.24276 3.98665 3.08045 4.05333C2.99861 4.08506 2.92385 4.13264 2.86045 4.19333L1.52712 5.52667C1.40158 5.6522 1.33105 5.82247 1.33105 6C1.33105 6.17753 1.40158 6.3478 1.52712 6.47333C1.65265 6.59887 1.82291 6.66939 2.00045 6.66939C2.17798 6.66939 2.34825 6.59887 2.47378 6.47333L2.66712 6.27333V9.72667L2.47378 9.52667C2.34825 9.40113 2.17798 9.33061 2.00045 9.33061C1.82291 9.33061 1.65265 9.40113 1.52712 9.52667C1.40158 9.6522 1.33105 9.82247 1.33105 10C1.33105 10.1775 1.40158 10.3478 1.52712 10.4733L2.86045 11.8067C2.92385 11.8674 2.99861 11.9149 3.08045 11.9467C3.16025 11.9819 3.24654 12.0002 3.33378 12.0002C3.42103 12.0002 3.50732 11.9819 3.58712 11.9467C3.66895 11.9149 3.74371 11.8674 3.80712 11.8067L5.14045 10.4733C5.20261 10.4112 5.25191 10.3374 5.28556 10.2562C5.3192 10.175 5.33651 10.0879 5.33651 10C5.33651 9.91209 5.3192 9.82505 5.28556 9.74383C5.25191 9.66262 5.20261 9.58883 5.14045 9.52667C5.07829 9.46451 5.0045 9.4152 4.92328 9.38156C4.84207 9.34792 4.75502 9.33061 4.66712 9.33061C4.57921 9.33061 4.49216 9.34792 4.41095 9.38156C4.32973 9.4152 4.25594 9.46451 4.19378 9.52667L4.00045 9.72667V6.27333L4.19378 6.47333ZM7.33378 5.33333H14.0004C14.1773 5.33333 14.3468 5.2631 14.4719 5.13807C14.5969 5.01305 14.6671 4.84348 14.6671 4.66667C14.6671 4.48986 14.5969 4.32029 14.4719 4.19526C14.3468 4.07024 14.1773 4 14.0004 4H7.33378C7.15697 4 6.9874 4.07024 6.86238 4.19526C6.73735 4.32029 6.66712 4.48986 6.66712 4.66667C6.66712 4.84348 6.73735 5.01305 6.86238 5.13807C6.9874 5.2631 7.15697 5.33333 7.33378 5.33333ZM14.0004 7.33333H7.33378C7.15697 7.33333 6.9874 7.40357 6.86238 7.5286C6.73735 7.65362 6.66712 7.82319 6.66712 8C6.66712 8.17681 6.73735 8.34638 6.86238 8.4714C6.9874 8.59643 7.15697 8.66667 7.33378 8.66667H14.0004C14.1773 8.66667 14.3468 8.59643 14.4719 8.4714C14.5969 8.34638 14.6671 8.17681 14.6671 8C14.6671 7.82319 14.5969 7.65362 14.4719 7.5286C14.3468 7.40357 14.1773 7.33333 14.0004 7.33333ZM14.0004 10.6667H7.33378C7.15697 10.6667 6.9874 10.7369 6.86238 10.8619C6.73735 10.987 6.66712 11.1565 6.66712 11.3333C6.66712 11.5101 6.73735 11.6797 6.86238 11.8047C6.9874 11.9298 7.15697 12 7.33378 12H14.0004C14.1773 12 14.3468 11.9298 14.4719 11.8047C14.5969 11.6797 14.6671 11.5101 14.6671 11.3333C14.6671 11.1565 14.5969 10.987 14.4719 10.8619C14.3468 10.7369 14.1773 10.6667 14.0004 10.6667Z" fill="inherit"/>
</svg>
