<svg width="15" height="16" viewBox="0 0 15 16" fill="none" xmlns="http://www.w3.org/2000/svg">
<path d="M2.33366 4C2.20181 4 2.07291 4.0391 1.96328 4.11235C1.85365 4.18561 1.7682 4.28973 1.71774 4.41154C1.66728 4.53336 1.65408 4.66741 1.6798 4.79673C1.70553 4.92605 1.76902 5.04484 1.86225 5.13807C1.95549 5.23131 2.07428 5.2948 2.2036 5.32052C2.33292 5.34625 2.46696 5.33304 2.58878 5.28259C2.7106 5.23213 2.81472 5.14668 2.88797 5.03705C2.96123 4.92741 3.00033 4.79852 3.00033 4.66667C3.00033 4.48986 2.93009 4.32029 2.80506 4.19526C2.68004 4.07024 2.51047 4 2.33366 4ZM5.00033 5.33333H14.3337C14.5105 5.33333 14.68 5.2631 14.8051 5.13807C14.9301 5.01305 15.0003 4.84348 15.0003 4.66667C15.0003 4.48986 14.9301 4.32029 14.8051 4.19526C14.68 4.07024 14.5105 4 14.3337 4H5.00033C4.82351 4 4.65395 4.07024 4.52892 4.19526C4.4039 4.32029 4.33366 4.48986 4.33366 4.66667C4.33366 4.84348 4.4039 5.01305 4.52892 5.13807C4.65395 5.2631 4.82351 5.33333 5.00033 5.33333ZM5.00033 7.33333C4.86847 7.33333 4.73958 7.37243 4.62995 7.44569C4.52031 7.51894 4.43486 7.62306 4.38441 7.74488C4.33395 7.86669 4.32075 8.00074 4.34647 8.13006C4.37219 8.25938 4.43569 8.37817 4.52892 8.4714C4.62216 8.56464 4.74095 8.62813 4.87027 8.65386C4.99959 8.67958 5.13363 8.66638 5.25545 8.61592C5.37727 8.56546 5.48138 8.48001 5.55464 8.37038C5.62789 8.26075 5.66699 8.13185 5.66699 8C5.66699 7.82319 5.59675 7.65362 5.47173 7.5286C5.34671 7.40357 5.17714 7.33333 5.00033 7.33333ZM7.66699 10.6667C7.53514 10.6667 7.40625 10.7058 7.29661 10.779C7.18698 10.8523 7.10153 10.9564 7.05107 11.0782C7.00061 11.2 6.98741 11.3341 7.01314 11.4634C7.03886 11.5927 7.10235 11.7115 7.19559 11.8047C7.28882 11.898 7.40761 11.9615 7.53693 11.9872C7.66625 12.0129 7.8003 11.9997 7.92212 11.9493C8.04393 11.8988 8.14805 11.8133 8.22131 11.7037C8.29456 11.5941 8.33366 11.4652 8.33366 11.3333C8.33366 11.1565 8.26342 10.987 8.1384 10.8619C8.01337 10.7369 7.8438 10.6667 7.66699 10.6667ZM14.3337 7.33333H7.66699C7.49018 7.33333 7.32061 7.40357 7.19559 7.5286C7.07056 7.65362 7.00033 7.82319 7.00033 8C7.00033 8.17681 7.07056 8.34638 7.19559 8.4714C7.32061 8.59643 7.49018 8.66667 7.66699 8.66667H14.3337C14.5105 8.66667 14.68 8.59643 14.8051 8.4714C14.9301 8.34638 15.0003 8.17681 15.0003 8C15.0003 7.82319 14.9301 7.65362 14.8051 7.5286C14.68 7.40357 14.5105 7.33333 14.3337 7.33333ZM14.3337 10.6667H10.3337C10.1568 10.6667 9.98728 10.7369 9.86226 10.8619C9.73723 10.987 9.66699 11.1565 9.66699 11.3333C9.66699 11.5101 9.73723 11.6797 9.86226 11.8047C9.98728 11.9298 10.1568 12 10.3337 12H14.3337C14.5105 12 14.68 11.9298 14.8051 11.8047C14.9301 11.6797 15.0003 11.5101 15.0003 11.3333C15.0003 11.1565 14.9301 10.987 14.8051 10.8619C14.68 10.7369 14.5105 10.6667 14.3337 10.6667Z" fill="inherit"/>
</svg>
