<svg width="20" height="20" viewBox="0 0 20 20" fill="none" xmlns="http://www.w3.org/2000/svg">
<path d="M17.767 7.95817L16.192 7.43317L16.9337 5.94984C17.0088 5.79458 17.034 5.61981 17.0056 5.44965C16.9773 5.27949 16.8968 5.12233 16.7753 4.99984L15.0003 3.22484C14.8772 3.10158 14.7185 3.02001 14.5466 2.99161C14.3747 2.96321 14.1982 2.9894 14.042 3.06651L12.5587 3.80817L12.0337 2.23317C11.9782 2.069 11.873 1.92619 11.7326 1.82463C11.5922 1.72307 11.4236 1.66779 11.2503 1.66651H8.75033C8.57562 1.66606 8.4052 1.72052 8.26314 1.82221C8.12108 1.92389 8.01457 2.06766 7.95866 2.23317L7.43366 3.80817L5.95033 3.06651C5.79507 2.99132 5.6203 2.96618 5.45014 2.99454C5.27998 3.0229 5.12281 3.10337 5.00033 3.22484L3.22533 4.99984C3.10207 5.12298 3.0205 5.28165 2.9921 5.45355C2.9637 5.62545 2.98989 5.80193 3.067 5.95817L3.80866 7.44151L2.23366 7.96651C2.06949 8.02195 1.92668 8.1272 1.82512 8.2676C1.72355 8.40799 1.66828 8.57656 1.66699 8.74984V11.2498C1.66654 11.4245 1.72101 11.595 1.8227 11.737C1.92438 11.8791 2.06814 11.9856 2.23366 12.0415L3.80866 12.5665L3.067 14.0498C2.99181 14.2051 2.96666 14.3799 2.99502 14.55C3.02338 14.7202 3.10385 14.8774 3.22533 14.9998L5.00033 16.7748C5.12347 16.8981 5.28214 16.9797 5.45404 17.0081C5.62594 17.0365 5.80242 17.0103 5.95866 16.9332L7.442 16.1915L7.967 17.7665C8.0229 17.932 8.12941 18.0758 8.27147 18.1775C8.41353 18.2792 8.58396 18.3336 8.75866 18.3332H11.2587C11.4334 18.3336 11.6038 18.2792 11.7459 18.1775C11.8879 18.0758 11.9944 17.932 12.0503 17.7665L12.5753 16.1915L14.0587 16.9332C14.2129 17.0065 14.386 17.0306 14.5544 17.0023C14.7229 16.9739 14.8785 16.8945 15.0003 16.7748L16.7753 14.9998C16.8986 14.8767 16.9802 14.718 17.0086 14.5461C17.037 14.3742 17.0108 14.1977 16.9337 14.0415L16.192 12.5582L17.767 12.0332C17.9312 11.9777 18.074 11.8725 18.1755 11.7321C18.2771 11.5917 18.3324 11.4231 18.3337 11.2498V8.74984C18.3341 8.57514 18.2796 8.40471 18.178 8.26265C18.0763 8.12059 17.9325 8.01408 17.767 7.95817ZM16.667 10.6498L15.667 10.9832C15.437 11.0578 15.2261 11.1815 15.0487 11.3458C14.8713 11.51 14.7318 11.7109 14.6399 11.9345C14.5479 12.1581 14.5057 12.399 14.5161 12.6405C14.5266 12.882 14.5894 13.1184 14.7003 13.3332L15.1753 14.2832L14.2587 15.1998L13.3337 14.6998C13.12 14.5934 12.8859 14.5341 12.6473 14.5259C12.4086 14.5178 12.1711 14.561 11.9506 14.6527C11.7301 14.7443 11.5319 14.8823 11.3694 15.0572C11.2069 15.2321 11.0839 15.4399 11.0087 15.6665L10.6753 16.6665H9.35033L9.01699 15.6665C8.9424 15.4366 8.81868 15.2256 8.65441 15.0482C8.49014 14.8709 8.28925 14.7314 8.06568 14.6394C7.84211 14.5474 7.6012 14.5052 7.35968 14.5156C7.11816 14.5261 6.8818 14.5889 6.667 14.6998L5.717 15.1748L4.80033 14.2582L5.30033 13.3332C5.41124 13.1184 5.4741 12.882 5.48453 12.6405C5.49497 12.399 5.45274 12.1581 5.36078 11.9345C5.26881 11.7109 5.12931 11.51 4.95195 11.3458C4.77459 11.1815 4.56361 11.0578 4.33366 10.9832L3.33366 10.6498V9.34984L4.33366 9.01651C4.56361 8.94192 4.77459 8.81819 4.95195 8.65392C5.12931 8.48965 5.26881 8.28876 5.36078 8.06519C5.45274 7.84162 5.49497 7.60072 5.48453 7.35919C5.4741 7.11767 5.41124 6.88131 5.30033 6.66651L4.82533 5.74151L5.74199 4.82484L6.667 5.29984C6.8818 5.41075 7.11816 5.47361 7.35968 5.48404C7.6012 5.49448 7.84211 5.45225 8.06568 5.36029C8.28925 5.26832 8.49014 5.12882 8.65441 4.95146C8.81868 4.7741 8.9424 4.56313 9.01699 4.33317L9.35033 3.33317H10.6503L10.9837 4.33317C11.0583 4.56313 11.182 4.7741 11.3462 4.95146C11.5105 5.12882 11.7114 5.26832 11.935 5.36029C12.1586 5.45225 12.3995 5.49448 12.641 5.48404C12.8825 5.47361 13.1189 5.41075 13.3337 5.29984L14.2837 4.82484L15.2003 5.74151L14.7003 6.66651C14.5939 6.88021 14.5345 7.1143 14.5264 7.35291C14.5183 7.59153 14.5615 7.82911 14.6532 8.04958C14.7448 8.27004 14.8828 8.46823 15.0577 8.63074C15.2326 8.79325 15.4404 8.91628 15.667 8.99151L16.667 9.32484V10.6498ZM10.0003 6.66651C9.34106 6.66651 8.69659 6.862 8.14843 7.22828C7.60026 7.59455 7.17302 8.11514 6.92073 8.72423C6.66844 9.33332 6.60243 10.0035 6.73104 10.6501C6.85966 11.2967 7.17713 11.8907 7.64331 12.3569C8.10948 12.823 8.70342 13.1405 9.35003 13.2691C9.99663 13.3977 10.6669 13.3317 11.2759 13.0794C11.885 12.8271 12.4056 12.3999 12.7719 11.8517C13.1382 11.3036 13.3337 10.6591 13.3337 9.99984C13.3337 9.11579 12.9825 8.26794 12.3574 7.64282C11.7322 7.0177 10.8844 6.66651 10.0003 6.66651ZM10.0003 11.6665C9.67069 11.6665 9.34846 11.5688 9.07438 11.3856C8.8003 11.2025 8.58667 10.9422 8.46053 10.6376C8.33438 10.3331 8.30138 9.99799 8.36569 9.67469C8.42999 9.35139 8.58873 9.05442 8.82182 8.82133C9.0549 8.58824 9.35188 8.42951 9.67518 8.3652C9.99848 8.30089 10.3336 8.33389 10.6381 8.46004C10.9427 8.58619 11.203 8.79981 11.3861 9.07389C11.5692 9.34797 11.667 9.6702 11.667 9.99984C11.667 10.4419 11.4914 10.8658 11.1788 11.1784C10.8663 11.4909 10.4424 11.6665 10.0003 11.6665Z" fill="inherit"/>
</svg>
