<svg width="15" height="16" viewBox="0 0 15 16" fill="none" xmlns="http://www.w3.org/2000/svg">
<path d="M12.667 4.66659H10.667V3.99992C10.667 3.29267 10.386 2.6144 9.88594 2.1143C9.38585 1.6142 8.70757 1.33325 8.00033 1.33325C7.29308 1.33325 6.6148 1.6142 6.11471 2.1143C5.61461 2.6144 5.33366 3.29267 5.33366 3.99992V4.66659H3.33366C3.15685 4.66659 2.98728 4.73682 2.86225 4.86185C2.73723 4.98687 2.66699 5.15644 2.66699 5.33325V12.6666C2.66699 13.197 2.87771 13.7057 3.25278 14.0808C3.62785 14.4559 4.13656 14.6666 4.66699 14.6666H11.3337C11.8641 14.6666 12.3728 14.4559 12.7479 14.0808C13.1229 13.7057 13.3337 13.197 13.3337 12.6666V5.33325C13.3337 5.15644 13.2634 4.98687 13.1384 4.86185C13.0134 4.73682 12.8438 4.66659 12.667 4.66659ZM6.66699 3.99992C6.66699 3.6463 6.80747 3.30716 7.05752 3.05711C7.30756 2.80706 7.6467 2.66659 8.00033 2.66659C8.35395 2.66659 8.69309 2.80706 8.94313 3.05711C9.19318 3.30716 9.33366 3.6463 9.33366 3.99992V4.66659H6.66699V3.99992ZM12.0003 12.6666C12.0003 12.8434 11.9301 13.013 11.8051 13.138C11.68 13.263 11.5105 13.3333 11.3337 13.3333H4.66699C4.49018 13.3333 4.32061 13.263 4.19559 13.138C4.07056 13.013 4.00033 12.8434 4.00033 12.6666V5.99992H5.33366V6.66659C5.33366 6.8434 5.4039 7.01297 5.52892 7.13799C5.65395 7.26301 5.82351 7.33325 6.00033 7.33325C6.17714 7.33325 6.34671 7.26301 6.47173 7.13799C6.59675 7.01297 6.66699 6.8434 6.66699 6.66659V5.99992H9.33366V6.66659C9.33366 6.8434 9.4039 7.01297 9.52892 7.13799C9.65394 7.26301 9.82351 7.33325 10.0003 7.33325C10.1771 7.33325 10.3467 7.26301 10.4717 7.13799C10.5968 7.01297 10.667 6.8434 10.667 6.66659V5.99992H12.0003V12.6666Z" fill="inherit"/>
</svg>
