<svg width="24" height="24" viewBox="0 0 24 24" fill="none" xmlns="http://www.w3.org/2000/svg">
<path d="M21.92 11.62C21.8724 11.4973 21.801 11.3851 21.71 11.29L19.21 8.79C19.0217 8.6017 18.7663 8.49591 18.5 8.49591C18.2337 8.49591 17.9783 8.6017 17.79 8.79C17.6017 8.97831 17.4959 9.2337 17.4959 9.5C17.4959 9.7663 17.6017 10.0217 17.79 10.21L18.59 11H14C13.7348 11 13.4804 11.1054 13.2929 11.2929C13.1054 11.4804 13 11.7348 13 12C13 12.2652 13.1054 12.5196 13.2929 12.7071C13.4804 12.8946 13.7348 13 14 13H18.59L17.79 13.79C17.6963 13.883 17.6219 13.9936 17.5711 14.1154C17.5203 14.2373 17.4942 14.368 17.4942 14.5C17.4942 14.632 17.5203 14.7627 17.5711 14.8846C17.6219 15.0064 17.6963 15.117 17.79 15.21C17.883 15.3037 17.9936 15.3781 18.1154 15.4289C18.2373 15.4797 18.368 15.5058 18.5 15.5058C18.632 15.5058 18.7627 15.4797 18.8846 15.4289C19.0064 15.3781 19.117 15.3037 19.21 15.21L21.71 12.71C21.801 12.6149 21.8724 12.5028 21.92 12.38C22.02 12.1365 22.02 11.8635 21.92 11.62Z" fill="inherit"/>
<path d="M7.59499 13.0017L3.00499 13.0017C2.73977 13.0017 2.48542 12.8963 2.29788 12.7088C2.11034 12.5213 2.00499 12.2669 2.00499 12.0017C2.00499 11.7365 2.11034 11.4821 2.29788 11.2946C2.48542 11.1071 2.73977 11.0017 3.00499 11.0017L7.59499 11.0017L6.79499 10.2117C6.70126 10.1187 6.62686 10.0081 6.5761 9.88628C6.52533 9.76442 6.49919 9.63372 6.49919 9.50171C6.49919 9.36969 6.52533 9.23899 6.5761 9.11713C6.62686 8.99527 6.70126 8.88467 6.79499 8.79171C6.88795 8.69798 6.99855 8.62358 7.12041 8.57282C7.24227 8.52205 7.37298 8.49591 7.50499 8.49591C7.637 8.49591 7.7677 8.52205 7.88956 8.57282C8.01142 8.62358 8.12202 8.69798 8.21499 8.79171L10.715 11.2917C10.806 11.3868 10.8774 11.499 10.925 11.6217C11.025 11.8652 11.025 12.1382 10.925 12.3817C10.8774 12.5045 10.806 12.6166 10.715 12.7117L8.21499 15.2117C8.02668 15.4 7.77129 15.5058 7.50499 15.5058C7.23868 15.5058 6.98329 15.4 6.79499 15.2117C6.60668 15.0234 6.50089 14.768 6.50089 14.5017C6.50089 14.2354 6.60668 13.98 6.79499 13.7917L7.59499 13.0017Z" fill="inherit"/>
</svg>
