<svg width="24" height="24" viewBox="0 0 24 24" fill="none" xmlns="http://www.w3.org/2000/svg">
<path d="M11.45 11.45L7.05001 7.04999C6.90414 6.90412 6.7063 6.82217 6.50001 6.82217C6.29372 6.82217 6.09588 6.90412 5.95001 7.04999L1.55001 11.45C1.40415 11.5959 1.3222 11.7937 1.3222 12C1.3222 12.2063 1.40415 12.4041 1.55001 12.55L5.95001 16.95C6.09588 17.0958 6.29372 17.1778 6.50001 17.1778C6.7063 17.1778 6.90414 17.0958 7.05001 16.95L11.45 12.55C11.5959 12.4041 11.6778 12.2063 11.6778 12C11.6778 11.7937 11.5959 11.5959 11.45 11.45ZM6.50001 15.3L3.20001 12L6.50001 8.69999L9.8 12L6.50001 15.3ZM22.615 12.297C22.6936 12.1068 22.6936 11.8932 22.615 11.703C22.577 11.6087 22.521 11.5227 22.45 11.45L19.15 8.14999C19.0041 8.00412 18.8063 7.92217 18.6 7.92217C18.3937 7.92217 18.1959 8.00412 18.05 8.14999C17.9041 8.29586 17.8222 8.4937 17.8222 8.69999C17.8222 8.90628 17.9041 9.10412 18.05 9.24999L20.0245 11.2245L14.2 11.219C14.0973 11.2186 13.9956 11.2385 13.9006 11.2776C13.8057 11.3167 13.7194 11.3742 13.6468 11.4468C13.5742 11.5194 13.5167 11.6057 13.4776 11.7006C13.4385 11.7956 13.4186 11.8973 13.419 12C13.4186 12.1027 13.4385 12.2044 13.4776 12.2994C13.5167 12.3943 13.5742 12.4806 13.6468 12.5532C13.7194 12.6258 13.8057 12.6833 13.9006 12.7224C13.9956 12.7615 14.0973 12.7814 14.2 12.781L20.0245 12.7755L18.05 14.75C17.9041 14.8959 17.8222 15.0937 17.8222 15.3C17.8222 15.5063 17.9041 15.7041 18.05 15.85C18.1959 15.9958 18.3937 16.0778 18.6 16.0778C18.8063 16.0778 19.0041 15.9958 19.15 15.85L22.45 12.55C22.521 12.4772 22.577 12.3913 22.615 12.297Z" fill="inherit"/>
</svg>
