<svg width="12" height="16" viewBox="0 0 12 16" fill="none" xmlns="http://www.w3.org/2000/svg">
<path d="M9.57499 9.90828L5.99999 13.4916L2.42499 9.90828C2.26807 9.75136 2.05524 9.66321 1.83333 9.66321C1.61141 9.66321 1.39858 9.75136 1.24166 9.90828C1.08474 10.0652 0.996582 10.278 0.996582 10.4999C0.996582 10.7219 1.08474 10.9347 1.24166 11.0916L5.40833 15.2583C5.48579 15.3364 5.57796 15.3984 5.67951 15.4407C5.78106 15.483 5.88998 15.5048 5.99999 15.5048C6.11 15.5048 6.21892 15.483 6.32047 15.4407C6.42202 15.3984 6.51419 15.3364 6.59166 15.2583L10.7583 11.0916C10.836 11.0139 10.8977 10.9217 10.9397 10.8202C10.9818 10.7186 11.0034 10.6098 11.0034 10.4999C11.0034 10.3901 10.9818 10.2813 10.9397 10.1797C10.8977 10.0782 10.836 9.98598 10.7583 9.90828C10.6806 9.83058 10.5884 9.76895 10.4869 9.7269C10.3853 9.68485 10.2765 9.66321 10.1667 9.66321C10.0568 9.66321 9.94797 9.68485 9.84645 9.7269C9.74493 9.76895 9.65269 9.83058 9.57499 9.90828ZM2.42499 6.09162L5.99999 2.50828L9.57499 6.09162C9.65246 6.16972 9.74463 6.23172 9.84618 6.27402C9.94773 6.31633 10.0566 6.33811 10.1667 6.33811C10.2767 6.33811 10.3856 6.31633 10.4871 6.27402C10.5887 6.23172 10.6809 6.16972 10.7583 6.09162C10.8364 6.01415 10.8984 5.92198 10.9407 5.82043C10.983 5.71888 11.0048 5.60996 11.0048 5.49995C11.0048 5.38994 10.983 5.28102 10.9407 5.17947C10.8984 5.07792 10.8364 4.98575 10.7583 4.90828L6.59166 0.741616C6.51419 0.663509 6.42202 0.601514 6.32047 0.559206C6.21892 0.516899 6.11 0.495117 5.99999 0.495117C5.88998 0.495117 5.78106 0.516899 5.67951 0.559206C5.57796 0.601514 5.48579 0.663509 5.40833 0.741616L1.24166 4.90828C1.08474 5.0652 0.996582 5.27803 0.996582 5.49995C0.996582 5.72187 1.08474 5.9347 1.24166 6.09162C1.39858 6.24854 1.61141 6.33669 1.83333 6.33669C2.05524 6.33669 2.26807 6.24854 2.42499 6.09162Z" fill="inherit"/>
</svg>
