<svg width="18" height="18" viewBox="0 0 18 18" fill="none" xmlns="http://www.w3.org/2000/svg">
<path d="M16.5 0.666748H1.49999C1.27898 0.666748 1.06701 0.754545 0.910734 0.910826C0.754454 1.06711 0.666656 1.27907 0.666656 1.50008V16.5001C0.666656 16.7211 0.754454 16.9331 0.910734 17.0893C1.06701 17.2456 1.27898 17.3334 1.49999 17.3334H16.5C16.721 17.3334 16.933 17.2456 17.0892 17.0893C17.2455 16.9331 17.3333 16.7211 17.3333 16.5001V1.50008C17.3333 1.27907 17.2455 1.06711 17.0892 0.910826C16.933 0.754545 16.721 0.666748 16.5 0.666748ZM8.16666 15.6667H2.33332V2.33341H8.16666V15.6667ZM15.6667 15.6667H9.83332V2.33341H15.6667V15.6667Z" fill="inherit"/>
</svg>
