<svg width="18" height="18" viewBox="0 0 18 18" fill="none" xmlns="http://www.w3.org/2000/svg">
<path d="M14.8334 0.666748H3.16669C2.50365 0.666748 1.86776 0.93014 1.39892 1.39898C0.930079 1.86782 0.666687 2.50371 0.666687 3.16675V4.14175C0.666568 4.48587 0.737492 4.82631 0.87502 5.14175V5.19175C0.992753 5.45922 1.15951 5.7023 1.36669 5.90841L6.50002 11.0084V16.5001C6.49974 16.6417 6.53555 16.7811 6.60408 16.905C6.67261 17.0289 6.77159 17.1334 6.89169 17.2084C7.0243 17.2906 7.17733 17.3339 7.33335 17.3334C7.46381 17.3326 7.59225 17.3012 7.70835 17.2417L11.0417 15.5751C11.1791 15.5058 11.2947 15.3999 11.3756 15.269C11.4565 15.1381 11.4996 14.9873 11.5 14.8334V11.0084L16.6 5.90841C16.8072 5.7023 16.974 5.45922 17.0917 5.19175V5.14175C17.2407 4.82877 17.323 4.48823 17.3334 4.14175V3.16675C17.3334 2.50371 17.07 1.86782 16.6011 1.39898C16.1323 0.93014 15.4964 0.666748 14.8334 0.666748ZM10.075 10.0751C9.99779 10.1529 9.93668 10.2453 9.89521 10.3468C9.85374 10.4484 9.83272 10.5571 9.83335 10.6667V14.3167L8.16669 15.1501V10.6667C8.16732 10.5571 8.1463 10.4484 8.10483 10.3468C8.06336 10.2453 8.00225 10.1529 7.92502 10.0751L3.50835 5.66675H14.4917L10.075 10.0751ZM15.6667 4.00008H2.33335V3.16675C2.33335 2.94573 2.42115 2.73377 2.57743 2.57749C2.73371 2.42121 2.94567 2.33341 3.16669 2.33341H14.8334C15.0544 2.33341 15.2663 2.42121 15.4226 2.57749C15.5789 2.73377 15.6667 2.94573 15.6667 3.16675V4.00008Z" fill="inherit"/>
</svg>
