<svg width="18" height="18" viewBox="0 0 18 18" fill="none" xmlns="http://www.w3.org/2000/svg">
<path d="M12.3333 7.3334H10.6667V5.66673C10.6667 5.44572 10.5789 5.23376 10.4226 5.07748C10.2663 4.9212 10.0544 4.8334 9.83334 4.8334H5.66667C5.44566 4.8334 5.2337 4.9212 5.07742 5.07748C4.92114 5.23376 4.83334 5.44572 4.83334 5.66673V9.8334C4.83334 10.0544 4.92114 10.2664 5.07742 10.4227C5.2337 10.5789 5.44566 10.6667 5.66667 10.6667H7.33334V12.3334C7.33334 12.5544 7.42114 12.7664 7.57742 12.9227C7.7337 13.0789 7.94566 13.1667 8.16667 13.1667H12.3333C12.5544 13.1667 12.7663 13.0789 12.9226 12.9227C13.0789 12.7664 13.1667 12.5544 13.1667 12.3334V8.16673C13.1667 7.94572 13.0789 7.73376 12.9226 7.57748C12.7663 7.4212 12.5544 7.3334 12.3333 7.3334ZM7.33334 8.16673V9.00007H6.50001V6.50007H9.00001V7.3334H8.16667C7.94566 7.3334 7.7337 7.4212 7.57742 7.57748C7.42114 7.73376 7.33334 7.94572 7.33334 8.16673ZM11.5 11.5001H9.00001V9.00007H11.5V11.5001ZM16.5 14.2334V3.76673C16.7254 3.64137 16.9186 3.46542 17.0644 3.25272C17.2103 3.04002 17.3048 2.79638 17.3405 2.54097C17.3762 2.28555 17.3521 2.02534 17.2702 1.7808C17.1883 1.53626 17.0507 1.31407 16.8684 1.13171C16.686 0.94935 16.4638 0.811798 16.2193 0.729876C15.9747 0.647955 15.7145 0.6239 15.4591 0.659605C15.2037 0.69531 14.9601 0.7898 14.7474 0.93564C14.5347 1.08148 14.3587 1.27469 14.2333 1.50007H3.76667C3.64131 1.27469 3.46536 1.08148 3.25266 0.93564C3.03996 0.7898 2.79632 0.69531 2.5409 0.659605C2.28549 0.6239 2.02528 0.647955 1.78074 0.729876C1.5362 0.811798 1.31401 0.94935 1.13165 1.13171C0.949289 1.31407 0.811737 1.53626 0.729815 1.7808C0.647894 2.02534 0.623839 2.28555 0.659544 2.54097C0.695249 2.79638 0.789739 3.04002 0.935578 3.25272C1.08142 3.46542 1.27463 3.64137 1.50001 3.76673V14.2334C1.27463 14.3588 1.08142 14.5347 0.935578 14.7474C0.789739 14.9601 0.695249 15.2038 0.659544 15.4592C0.623839 15.7146 0.647894 15.9748 0.729815 16.2193C0.811737 16.4639 0.949289 16.6861 1.13165 16.8684C1.31401 17.0508 1.5362 17.1883 1.78074 17.2703C2.02528 17.3522 2.28549 17.3762 2.5409 17.3405C2.79632 17.3048 3.03996 17.2103 3.25266 17.0645C3.46536 16.9187 3.64131 16.7254 3.76667 16.5001H14.2333C14.3587 16.7254 14.5347 16.9187 14.7474 17.0645C14.9601 17.2103 15.2037 17.3048 15.4591 17.3405C15.7145 17.3762 15.9747 17.3522 16.2193 17.2703C16.4638 17.1883 16.686 17.0508 16.8684 16.8684C17.0507 16.6861 17.1883 16.4639 17.2702 16.2193C17.3521 15.9748 17.3762 15.7146 17.3405 15.4592C17.3048 15.2038 17.2103 14.9601 17.0644 14.7474C16.9186 14.5347 16.7254 14.3588 16.5 14.2334ZM14.8333 14.2334C14.5827 14.3754 14.3754 14.5828 14.2333 14.8334H3.76667C3.62465 14.5828 3.41728 14.3754 3.16667 14.2334V3.76673C3.41728 3.62471 3.62465 3.41734 3.76667 3.16673H14.2333C14.3754 3.41734 14.5827 3.62471 14.8333 3.76673V14.2334Z" fill="inherit"/>
</svg>
