<svg width="20" height="20" viewBox="0 0 20 20" fill="none" xmlns="http://www.w3.org/2000/svg">
<path d="M11.4917 8.50842C11.5691 8.58652 11.6613 8.64852 11.7629 8.69082C11.8644 8.73313 11.9733 8.75491 12.0833 8.75491C12.1933 8.75491 12.3023 8.73313 12.4038 8.69082C12.5054 8.64852 12.5975 8.58652 12.675 8.50842C12.7531 8.43095 12.8151 8.33878 12.8574 8.23723C12.8997 8.13568 12.9215 8.02676 12.9215 7.91675C12.9215 7.80674 12.8997 7.69782 12.8574 7.59627C12.8151 7.49472 12.7531 7.40255 12.675 7.32508L10.5917 5.24175C10.5124 5.16588 10.419 5.10641 10.3167 5.06675C10.1138 4.9834 9.88622 4.9834 9.68333 5.06675C9.58104 5.10641 9.48759 5.16588 9.40833 5.24175L7.325 7.32508C7.16808 7.482 7.07992 7.69483 7.07992 7.91675C7.07992 8.13867 7.16808 8.3515 7.325 8.50842C7.48192 8.66533 7.69475 8.75349 7.91667 8.75349C8.13858 8.75349 8.35141 8.66533 8.50833 8.50842L9.16667 7.84175V12.1584L8.50833 11.4917C8.35141 11.3348 8.13858 11.2467 7.91667 11.2467C7.69475 11.2467 7.48192 11.3348 7.325 11.4917C7.16808 11.6487 7.07992 11.8615 7.07992 12.0834C7.07992 12.3053 7.16808 12.5182 7.325 12.6751L9.40833 14.7584C9.48759 14.8343 9.58104 14.8938 9.68333 14.9334C9.78308 14.9775 9.89094 15.0003 10 15.0003C10.1091 15.0003 10.2169 14.9775 10.3167 14.9334C10.419 14.8938 10.5124 14.8343 10.5917 14.7584L12.675 12.6751C12.8319 12.5182 12.9201 12.3053 12.9201 12.0834C12.9201 11.8615 12.8319 11.6487 12.675 11.4917C12.5181 11.3348 12.3053 11.2467 12.0833 11.2467C11.8614 11.2467 11.6486 11.3348 11.4917 11.4917L10.8333 12.1584V7.84175L11.4917 8.50842ZM5.83333 3.33341H14.1667C14.3877 3.33341 14.5996 3.24562 14.7559 3.08934C14.9122 2.93306 15 2.7211 15 2.50008C15 2.27907 14.9122 2.06711 14.7559 1.91083C14.5996 1.75455 14.3877 1.66675 14.1667 1.66675H5.83333C5.61232 1.66675 5.40036 1.75455 5.24408 1.91083C5.0878 2.06711 5 2.27907 5 2.50008C5 2.7211 5.0878 2.93306 5.24408 3.08934C5.40036 3.24562 5.61232 3.33341 5.83333 3.33341ZM14.1667 16.6667H5.83333C5.61232 16.6667 5.40036 16.7545 5.24408 16.9108C5.0878 17.0671 5 17.2791 5 17.5001C5 17.7211 5.0878 17.9331 5.24408 18.0893C5.40036 18.2456 5.61232 18.3334 5.83333 18.3334H14.1667C14.3877 18.3334 14.5996 18.2456 14.7559 18.0893C14.9122 17.9331 15 17.7211 15 17.5001C15 17.2791 14.9122 17.0671 14.7559 16.9108C14.5996 16.7545 14.3877 16.6667 14.1667 16.6667Z" fill="inherit"/>
</svg>
