<svg width="131" height="91" viewBox="0 0 131 91" fill="none" xmlns="http://www.w3.org/2000/svg">
<path d="M0 63.3227C0 56.9764 5.13862 51.9901 11.7871 51.9901C15.2846 51.9901 18.825 53.6764 20.4232 56.1401C20.8986 56.8744 21.1136 57.4796 21.1136 58.1278C21.1142 58.5597 21.0297 58.9874 20.865 59.3865C20.7003 59.7857 20.4586 60.1483 20.1537 60.4538C19.8488 60.7593 19.4867 61.0016 19.0882 61.1668C18.6897 61.332 18.2626 61.4168 17.8312 61.4165C16.6994 61.4165 15.889 61.072 15.2846 60.3354C14.4651 59.3404 13.2472 58.8214 11.8732 58.8214C9.28347 58.8214 7.59927 60.5938 7.59927 63.3159C7.59927 66.0379 9.28121 67.8194 11.8732 67.8194C12.5156 67.8183 13.1508 67.6831 13.7382 67.4224C14.3256 67.1617 14.8522 66.7813 15.2846 66.3054C15.7389 65.8133 16.3297 65.4682 16.9811 65.3144C17.6326 65.1605 18.3151 65.2048 18.9412 65.4417C19.5673 65.6786 20.1085 66.0972 20.4956 66.644C20.8826 67.1907 21.0978 67.8407 21.1136 68.5107C21.1209 69.1731 20.9249 69.8219 20.5522 70.3692C18.696 73.1367 15.5879 74.6484 11.7871 74.6484C5.13862 74.6507 0 69.678 0 63.3227Z" fill="#FF4C4C"/>
<path d="M46.9742 63.3227C46.9742 69.6349 41.7926 74.6552 35.1871 74.6552C28.5816 74.6552 23.443 69.6848 23.443 63.3227C23.443 56.9606 28.5816 51.9901 35.1871 51.9901C41.7926 51.9901 46.9742 57.0059 46.9742 63.3227ZM31.0423 63.3227C31.0423 66.0039 32.7265 67.8194 35.2301 67.8194C37.6478 67.8194 39.375 65.9178 39.375 63.3227C39.375 60.7275 37.6048 58.8282 35.2301 58.8282C32.7695 58.8282 31.0423 60.6414 31.0423 63.3227Z" fill="#FF4C4C"/>
<path d="M65.5389 55.4987C65.5389 57.4864 64.2441 58.8282 62.1275 59.1251C59.4518 59.515 58.1547 61.165 58.1547 64.2701V70.8838C58.1547 73.046 56.5565 74.6439 54.4422 74.6439C52.3279 74.6439 50.7297 73.0438 50.7297 70.8838V55.7503C50.7297 53.588 52.2826 51.9901 54.3517 51.9901C55.1162 51.9756 55.8643 52.213 56.4807 52.666C57.0971 53.119 57.5477 53.7623 57.7631 54.4969C58.9719 53.0282 60.5701 52.1624 62.2905 52.1624C64.1898 52.1624 65.5276 53.5019 65.5276 55.4896" fill="#FF4C4C"/>
<path d="M87.0826 61.5956V70.9359C87.0826 73.0551 85.5704 74.6099 83.4992 74.6099C82.7974 74.6282 82.1062 74.4365 81.5139 74.0594C80.9215 73.6823 80.4549 73.137 80.1738 72.493C78.6616 73.8756 76.5518 74.6552 74.1297 74.6552C69.6837 74.6552 66.6594 71.9762 66.6594 67.9985C66.6594 63.9346 69.8105 61.514 75.1212 61.514H79.6486V61.1672C79.6486 59.3948 78.4398 58.3998 76.3232 58.3998C75.1028 58.4051 73.9129 58.7821 72.9118 59.4809C72.0471 60.043 71.5739 60.2153 70.9265 60.2153C70.5226 60.2265 70.1204 60.1565 69.7439 60.0095C69.3674 59.8625 69.0242 59.6415 68.7345 59.3594C68.4447 59.0773 68.2144 58.74 68.0571 58.3673C67.8997 57.9946 67.8186 57.5941 67.8184 57.1895C67.8184 56.1084 68.3798 55.1157 69.4166 54.2929C71.2276 52.8242 73.9938 52.0015 77.1449 52.0015C83.5354 52.0015 87.0758 55.4602 87.0758 61.5979L87.0826 61.5956ZM79.6486 66.2238V66.0516H76.1602C74.9084 66.0516 74.1749 66.6567 74.1749 67.6948C74.1749 68.7759 74.9944 69.3811 76.3775 69.3811C78.3198 69.3811 79.6576 68.1277 79.6576 66.2261" fill="#FF4C4C"/>
<path d="M91.7458 70.8883V44.9526C91.7458 42.7903 93.301 41.1925 95.4583 41.1925C97.5749 41.1925 99.1708 42.7926 99.1708 44.9526V70.8883C99.1708 73.0505 97.5726 74.6507 95.4583 74.6507C93.344 74.6507 91.7458 73.0505 91.7458 70.8883Z" fill="#FF4C4C"/>
<path d="M125.509 55.5871C125.494 56.2074 125.331 56.815 125.034 57.3595L116.054 75.2989C113.507 80.3578 110.786 82.4316 106.641 82.4316C105.432 82.4316 104.395 82.205 103.662 81.7834C103.165 81.5054 102.753 81.0966 102.472 80.6012C102.19 80.1058 102.049 79.5428 102.064 78.9729C102.064 77.1144 103.531 75.7726 105.389 75.7726H105.518C107.202 75.7726 108.282 75.2536 109.059 73.5696L109.663 72.2301L102.797 57.3595C102.5 56.815 102.337 56.2073 102.322 55.5871C102.332 54.6386 102.713 53.7318 103.383 53.0611C104.052 52.3904 104.958 52.0092 105.905 51.9992C106.589 51.9856 107.262 52.1754 107.838 52.5446C108.414 52.9137 108.868 53.4456 109.142 54.073L113.849 64.7075L118.686 54.073C118.968 53.451 119.423 52.924 119.998 52.5559C120.572 52.1878 121.241 51.9944 121.923 51.9992C122.871 52.0092 123.776 52.3904 124.446 53.0611C125.116 53.7318 125.497 54.6386 125.507 55.5871" fill="#FF4C4C"/>
<path d="M128.538 71.9966C128.533 72.1086 128.485 72.2144 128.404 72.292C128.323 72.3696 128.215 72.4132 128.103 72.4136C128.021 72.4155 127.939 72.3956 127.867 72.3558C127.795 72.316 127.734 72.2577 127.691 72.187L127.071 71.2554H126.589V71.9513C126.589 72.0736 126.54 72.1909 126.454 72.2774C126.368 72.3639 126.25 72.4125 126.128 72.4125C126.006 72.4125 125.889 72.3639 125.802 72.2774C125.716 72.1909 125.668 72.0736 125.668 71.9513V69.2813C125.666 69.2195 125.676 69.1579 125.699 69.1004C125.722 69.0429 125.756 68.9907 125.8 68.947C125.844 68.9032 125.896 68.8689 125.953 68.8461C126.011 68.8233 126.072 68.8125 126.134 68.8144H127.055C127.863 68.8144 128.413 69.3085 128.413 70.0247C128.417 70.211 128.376 70.3955 128.293 70.5624C128.21 70.7293 128.088 70.8737 127.938 70.9835L128.404 71.643C128.483 71.7447 128.528 71.8682 128.533 71.9966H128.538ZM126.584 70.4486H127.055C127.165 70.4486 127.27 70.4049 127.348 70.3271C127.426 70.2493 127.469 70.1438 127.469 70.0338C127.469 69.9238 127.426 69.8183 127.348 69.7405C127.27 69.6627 127.165 69.619 127.055 69.619H126.584V70.4486Z" fill="#FF4C4C"/>
<path d="M130.998 70.5914C131.02 71.3676 130.809 72.1325 130.393 72.7881C129.978 73.4438 129.376 73.9603 128.666 74.2715C127.955 74.5827 127.168 74.6746 126.405 74.5352C125.642 74.3958 124.938 74.0316 124.383 73.4892C123.828 72.9468 123.447 72.2509 123.29 71.4906C123.132 70.7302 123.205 69.9401 123.498 69.2213C123.792 68.5026 124.293 67.8879 124.937 67.4561C125.582 67.0242 126.341 66.7948 127.116 66.7972C127.621 66.7873 128.123 66.878 128.592 67.064C129.061 67.25 129.489 67.5276 129.851 67.8807C130.212 68.2337 130.499 68.6552 130.696 69.1206C130.894 69.5859 130.996 70.0859 130.998 70.5914ZM124.18 70.5914C124.18 72.2799 125.427 73.6217 127.139 73.6217C128.803 73.6217 130.027 72.2799 130.027 70.614C130.027 68.9481 128.803 67.5588 127.116 67.5588C125.43 67.5588 124.173 68.9187 124.173 70.5891" fill="#FF4C4C"/>
<path d="M25.3875 88.4946C25.3838 88.1701 25.4448 87.8481 25.5668 87.5475C25.6888 87.2469 25.8694 86.9736 26.0981 86.7436C26.3267 86.5136 26.5988 86.3316 26.8985 86.208C27.1982 86.0845 27.5195 86.0219 27.8436 86.0241C28.206 86.0136 28.5657 86.0906 28.8923 86.2483C29.2188 86.4061 29.5028 86.6401 29.7202 86.9307C29.7649 86.9821 29.7891 87.0483 29.7881 87.1165C29.7881 87.1766 29.7642 87.2343 29.7218 87.2768C29.6793 87.3193 29.6218 87.3432 29.5617 87.3432C29.525 87.3429 29.489 87.3336 29.4566 87.3162C29.4243 87.2989 29.3967 87.2739 29.3761 87.2434C29.2003 87.0032 28.9692 86.8089 28.7024 86.6771C28.4356 86.5453 28.141 86.4799 27.8436 86.4864C27.3224 86.5039 26.8284 86.7236 26.466 87.0989C26.1035 87.4742 25.9008 87.9759 25.9008 88.498C25.9008 89.0201 26.1035 89.5217 26.466 89.897C26.8284 90.2724 27.3224 90.492 27.8436 90.5095C28.1411 90.517 28.4361 90.452 28.703 90.3201C28.97 90.1883 29.201 89.9935 29.3761 89.7525C29.3967 89.722 29.4243 89.697 29.4566 89.6797C29.489 89.6623 29.525 89.6531 29.5617 89.6527C29.6218 89.6527 29.6793 89.6766 29.7218 89.7191C29.7642 89.7616 29.7881 89.8193 29.7881 89.8794C29.7847 89.9495 29.7567 90.0162 29.7089 90.0675C29.4915 90.3581 29.2075 90.5921 28.8809 90.7498C28.5544 90.9076 28.1947 90.9845 27.8323 90.9741C27.5084 90.9741 27.1878 90.9098 26.889 90.7848C26.5901 90.6599 26.319 90.4768 26.0914 90.2461C25.8638 90.0155 25.6842 89.7419 25.5629 89.4412C25.4417 89.1405 25.3813 88.8188 25.3852 88.4946" fill="#FF4C4C"/>
<path d="M35.6262 88.4945C35.6244 88.9805 35.4789 89.4551 35.2079 89.8583C34.9369 90.2615 34.5527 90.5753 34.1038 90.76C33.6548 90.9448 33.1612 90.9922 32.6854 90.8963C32.2096 90.8004 31.7728 90.5654 31.4302 90.2212C31.0876 89.8769 30.8546 89.4387 30.7605 88.9619C30.6665 88.4851 30.7157 87.9911 30.9018 87.5423C31.088 87.0935 31.4028 86.71 31.8065 86.4401C32.2102 86.1703 32.6847 86.0263 33.1701 86.0263C33.4936 86.0257 33.814 86.0892 34.1128 86.2131C34.4117 86.3371 34.6831 86.519 34.9114 86.7484C35.1397 86.9779 35.3204 87.2503 35.4431 87.55C35.5658 87.8497 35.628 88.1707 35.6262 88.4945ZM31.2233 88.4945C31.2132 88.755 31.2559 89.0149 31.3487 89.2584C31.4415 89.502 31.5825 89.7243 31.7633 89.9119C31.9441 90.0995 32.161 90.2485 32.4008 90.35C32.6406 90.4516 32.8984 90.5035 33.1588 90.5027C33.5594 90.5176 33.9553 90.4122 34.2957 90.2001C34.636 89.988 34.9053 89.6789 35.0688 89.3124C35.2323 88.946 35.2827 88.5389 35.2134 88.1435C35.1441 87.7482 34.9583 87.3826 34.68 87.0938C34.4016 86.805 34.0433 86.6061 33.6512 86.5227C33.259 86.4393 32.8509 86.4752 32.4793 86.6258C32.1077 86.7763 31.7896 87.0347 31.5658 87.3677C31.3419 87.7007 31.2227 88.0932 31.2233 88.4945Z" fill="#FF4C4C"/>
<path d="M40.8146 87.8735V90.7271C40.8179 90.7613 40.814 90.7959 40.8032 90.8286C40.7923 90.8613 40.7748 90.8913 40.7517 90.9168C40.7285 90.9423 40.7003 90.9627 40.6689 90.9766C40.6374 90.9905 40.6034 90.9977 40.569 90.9977C40.5346 90.9977 40.5006 90.9905 40.4692 90.9766C40.4377 90.9627 40.4095 90.9423 40.3864 90.9168C40.3633 90.8913 40.3457 90.8613 40.3349 90.8286C40.324 90.7959 40.3201 90.7613 40.3234 90.7271V87.903C40.3234 87.0462 39.7937 86.4864 38.9969 86.4864C38.809 86.4784 38.6214 86.5095 38.4461 86.5779C38.2709 86.6462 38.1117 86.7503 37.9787 86.8835C37.8457 87.0167 37.7417 87.176 37.6734 87.3515C37.6052 87.527 37.5741 87.7148 37.5821 87.903V90.7271C37.5854 90.7613 37.5815 90.7959 37.5706 90.8286C37.5598 90.8613 37.5422 90.8913 37.5191 90.9168C37.496 90.9423 37.4678 90.9627 37.4363 90.9766C37.4049 90.9905 37.3709 90.9977 37.3365 90.9977C37.3021 90.9977 37.2681 90.9905 37.2366 90.9766C37.2052 90.9627 37.177 90.9423 37.1538 90.9168C37.1307 90.8913 37.1132 90.8613 37.1023 90.8286C37.0915 90.7959 37.0876 90.7613 37.0909 90.7271V86.2711C37.0967 86.2099 37.1251 86.1532 37.1705 86.1119C37.216 86.0706 37.2751 86.0477 37.3365 86.0477C37.3978 86.0477 37.457 86.0706 37.5024 86.1119C37.5478 86.1532 37.5762 86.2099 37.5821 86.2711V86.7244C37.7559 86.4949 37.9825 86.3108 38.2426 86.1877C38.5027 86.0646 38.7886 86.0061 39.0761 86.0172C40.1378 86.0172 40.8146 86.7357 40.8146 87.8667" fill="#FF4C4C"/>
<path d="M46.2973 87.8735V90.7271C46.3006 90.7613 46.2967 90.7959 46.2859 90.8286C46.275 90.8613 46.2575 90.8913 46.2343 90.9168C46.2112 90.9423 46.183 90.9627 46.1516 90.9766C46.1201 90.9905 46.0861 90.9977 46.0517 90.9977C46.0173 90.9977 45.9833 90.9905 45.9518 90.9766C45.9204 90.9627 45.8922 90.9423 45.8691 90.9168C45.8459 90.8913 45.8284 90.8613 45.8176 90.8286C45.8067 90.7959 45.8028 90.7613 45.8061 90.7271V87.903C45.8061 87.0462 45.2764 86.4864 44.4796 86.4864C44.2916 86.4784 44.1041 86.5095 43.9288 86.5779C43.7535 86.6462 43.5943 86.7503 43.4613 86.8835C43.3283 87.0167 43.2244 87.176 43.1561 87.3515C43.0878 87.527 43.0567 87.7148 43.0647 87.903V90.7271C43.068 90.7613 43.0641 90.7959 43.0533 90.8286C43.0424 90.8613 43.0249 90.8913 43.0018 90.9168C42.9786 90.9423 42.9504 90.9627 42.919 90.9766C42.8875 90.9905 42.8535 90.9977 42.8191 90.9977C42.7847 90.9977 42.7507 90.9905 42.7193 90.9766C42.6878 90.9627 42.6596 90.9423 42.6365 90.9168C42.6134 90.8913 42.5958 90.8613 42.585 90.8286C42.5741 90.7959 42.5702 90.7613 42.5735 90.7271V86.2711C42.5794 86.2099 42.6078 86.1532 42.6532 86.1119C42.6986 86.0706 42.7578 86.0477 42.8191 86.0477C42.8805 86.0477 42.9396 86.0706 42.985 86.1119C43.0305 86.1532 43.0589 86.2099 43.0647 86.2711V86.7244C43.2386 86.4949 43.4652 86.3108 43.7253 86.1877C43.9854 86.0646 44.2713 86.0061 44.5588 86.0172C45.6205 86.0172 46.2973 86.7357 46.2973 87.8667" fill="#FF4C4C"/>
<path d="M52.2146 88.1795V88.2974C52.2146 88.5036 52.1173 88.6215 51.909 88.6215H48.2056C48.21 88.8741 48.2641 89.1233 48.3649 89.355C48.4656 89.5866 48.6109 89.7961 48.7926 89.9715C48.9742 90.1468 49.1886 90.2846 49.4235 90.3769C49.6584 90.4692 49.9092 90.5143 50.1614 90.5095C50.4307 90.5102 50.6974 90.4567 50.9456 90.3519C51.1937 90.2472 51.4182 90.0934 51.6057 89.8998C51.6276 89.8707 51.6555 89.8467 51.6876 89.8295C51.7196 89.8123 51.755 89.8022 51.7913 89.8001C51.8513 89.8001 51.9089 89.8239 51.9514 89.8664C51.9938 89.9089 52.0177 89.9666 52.0177 90.0267C52.016 90.0708 52.0046 90.1141 51.9842 90.1532C51.9639 90.1924 51.9351 90.2266 51.9 90.2534C51.6751 90.4838 51.4059 90.6663 51.1086 90.7897C50.8114 90.9132 50.4923 90.9752 50.1705 90.9718C49.8455 90.9764 49.5229 90.9157 49.2217 90.7933C48.9206 90.6709 48.647 90.4892 48.4172 90.2591C48.1873 90.029 48.0059 89.7551 47.8837 89.4535C47.7614 89.152 47.7007 88.829 47.7053 88.5036C47.6957 88.1837 47.7498 87.8652 47.8646 87.5665C47.9794 87.2678 48.1525 86.9951 48.3738 86.7642C48.5952 86.5333 48.8602 86.3489 49.1536 86.2218C49.4469 86.0948 49.7626 86.0275 50.0822 86.024C50.3671 86.0141 50.6509 86.0632 50.9159 86.1682C51.181 86.2732 51.4215 86.4318 51.6225 86.6341C51.8235 86.8364 51.9807 87.0781 52.0841 87.344C52.1876 87.6099 52.2351 87.8943 52.2237 88.1795H52.2146ZM48.2169 88.1614H51.7053C51.7204 87.9394 51.6887 87.7167 51.6122 87.5078C51.5357 87.2989 51.4162 87.1084 51.2614 86.9487C51.1067 86.789 50.9201 86.6638 50.7138 86.581C50.5075 86.4982 50.2862 86.4598 50.0641 86.4683C49.6022 86.4738 49.1585 86.6494 48.8177 86.9618C48.477 87.2741 48.2631 87.7011 48.2169 88.1614Z" fill="#FF4C4C"/>
<path d="M53.3148 88.4946C53.3112 88.1701 53.3722 87.8481 53.4942 87.5475C53.6162 87.2469 53.7968 86.9736 54.0255 86.7436C54.2541 86.5136 54.5262 86.3316 54.8259 86.208C55.1256 86.0845 55.4469 86.0219 55.771 86.0241C56.1334 86.0136 56.4931 86.0906 56.8196 86.2483C57.1462 86.4061 57.4302 86.6401 57.6476 86.9307C57.6923 86.9821 57.7165 87.0483 57.7155 87.1165C57.7155 87.1766 57.6916 87.2343 57.6492 87.2768C57.6067 87.3193 57.5492 87.3432 57.4891 87.3432C57.4524 87.3429 57.4164 87.3336 57.384 87.3162C57.3517 87.2989 57.324 87.2739 57.3035 87.2434C57.1277 87.0032 56.8966 86.8089 56.6298 86.6771C56.363 86.5453 56.0684 86.4799 55.771 86.4864C55.2498 86.5039 54.7558 86.7236 54.3934 87.0989C54.0309 87.4742 53.8282 87.9759 53.8282 88.498C53.8282 89.0201 54.0309 89.5217 54.3934 89.897C54.7558 90.2724 55.2498 90.492 55.771 90.5095C56.0674 90.515 56.3608 90.4486 56.6261 90.316C56.8914 90.1834 57.1207 89.9885 57.2944 89.7479C57.315 89.7175 57.3426 89.6925 57.375 89.6751C57.4073 89.6578 57.4434 89.6485 57.4801 89.6482C57.5401 89.6482 57.5977 89.6721 57.6401 89.7146C57.6826 89.7571 57.7064 89.8147 57.7064 89.8749C57.7033 89.945 57.6752 90.0117 57.6272 90.063C57.4098 90.3535 57.1258 90.5875 56.7993 90.7453C56.4727 90.9031 56.113 90.98 55.7506 90.9696C55.4267 90.9696 55.1061 90.9053 54.8073 90.7803C54.5085 90.6553 54.2374 90.4722 54.0098 90.2416C53.7821 90.0109 53.6025 89.7374 53.4813 89.4367C53.36 89.136 53.2996 88.8142 53.3035 88.49" fill="#FF4C4C"/>
<path d="M61.5502 90.6772C61.5504 90.7339 61.5294 90.7887 61.4913 90.8306C61.4531 90.8726 61.4006 90.8987 61.3442 90.9038C61.1481 90.9533 60.9465 90.9769 60.7443 90.9741C59.8117 90.9741 59.291 90.4619 59.291 89.5485V86.5748H58.673C58.613 86.5748 58.5554 86.5509 58.513 86.5084C58.4705 86.4659 58.4467 86.4083 58.4467 86.3481C58.4467 86.288 58.4705 86.2304 58.513 86.1879C58.5554 86.1454 58.613 86.1215 58.673 86.1215H59.291V84.961C59.2877 84.9262 59.2917 84.891 59.3028 84.8577C59.3138 84.8244 59.3317 84.7939 59.3552 84.7679C59.3788 84.742 59.4075 84.7213 59.4395 84.7071C59.4715 84.6929 59.5061 84.6856 59.5412 84.6856C59.5762 84.6856 59.6108 84.6929 59.6428 84.7071C59.6748 84.7213 59.7035 84.742 59.7271 84.7679C59.7506 84.7939 59.7685 84.8244 59.7796 84.8577C59.7906 84.891 59.7946 84.9262 59.7913 84.961V86.1215H61.1201C61.1801 86.1215 61.2377 86.1454 61.2802 86.1879C61.3226 86.2304 61.3465 86.288 61.3465 86.3481C61.3465 86.4083 61.3226 86.4659 61.2802 86.5084C61.2377 86.5509 61.1801 86.5748 61.1201 86.5748H59.7936V89.5213C59.7936 90.2012 60.1286 90.514 60.8258 90.514C61.0726 90.514 61.2197 90.4641 61.3261 90.4641C61.3548 90.4613 61.3838 90.4645 61.4112 90.4736C61.4386 90.4826 61.4638 90.4974 61.4851 90.5168C61.5065 90.5363 61.5235 90.56 61.5351 90.5864C61.5467 90.6129 61.5526 90.6415 61.5525 90.6704" fill="#FF4C4C"/>
<path d="M63.3386 84.2924C63.3386 84.3762 63.3138 84.4582 63.2672 84.5279C63.2207 84.5976 63.1546 84.6519 63.0773 84.684C62.9999 84.7161 62.9148 84.7245 62.8327 84.7081C62.7506 84.6918 62.6751 84.6514 62.6159 84.5921C62.5567 84.5328 62.5164 84.4573 62.5001 84.3751C62.4837 84.2929 62.4921 84.2077 62.5242 84.1302C62.5562 84.0528 62.6105 83.9866 62.6801 83.94C62.7497 83.8934 62.8315 83.8686 62.9153 83.8686C62.971 83.868 63.0263 83.8785 63.078 83.8996C63.1296 83.9207 63.1765 83.9519 63.2159 83.9914C63.2554 84.0309 63.2865 84.0778 63.3076 84.1295C63.3287 84.1812 63.3392 84.2366 63.3386 84.2924ZM62.6595 90.7271V86.2711C62.6567 86.2382 62.6612 86.2052 62.6725 86.1743C62.6838 86.1433 62.7017 86.1152 62.725 86.0919C62.7483 86.0686 62.7763 86.0507 62.8072 86.0393C62.8381 86.028 62.8711 86.0236 62.9039 86.0263C62.9363 86.0257 62.9685 86.0316 62.9986 86.0437C63.0286 86.0557 63.056 86.0737 63.079 86.0965C63.102 86.1193 63.1202 86.1465 63.1325 86.1765C63.1448 86.2065 63.151 86.2387 63.1507 86.2711V90.7271C63.1507 90.7603 63.144 90.7932 63.1311 90.8237C63.1181 90.8543 63.0991 90.882 63.0753 90.905C63.0514 90.9281 63.0231 90.9461 62.9921 90.958C62.9611 90.9698 62.928 90.9753 62.8949 90.9741C62.8326 90.97 62.7744 90.9421 62.7322 90.896C62.69 90.85 62.6672 90.7895 62.6685 90.7271" fill="#FF4C4C"/>
<path d="M69.5388 88.4945C69.537 88.9805 69.3915 89.4551 69.1205 89.8583C68.8495 90.2615 68.4653 90.5753 68.0164 90.76C67.5674 90.9448 67.0738 90.9922 66.598 90.8963C66.1222 90.8004 65.6854 90.5654 65.3428 90.2212C65.0002 89.8769 64.7672 89.4387 64.6731 88.9619C64.5791 88.4851 64.6283 87.9911 64.8144 87.5423C65.0006 87.0935 65.3154 86.71 65.7191 86.4401C66.1228 86.1703 66.5973 86.0263 67.0827 86.0263C67.4062 86.0257 67.7266 86.0892 68.0254 86.2131C68.3243 86.3371 68.5957 86.519 68.824 86.7484C69.0523 86.9779 69.233 87.2503 69.3557 87.55C69.4784 87.8497 69.5406 88.1707 69.5388 88.4945ZM65.1359 88.4945C65.1258 88.755 65.1685 89.0149 65.2613 89.2584C65.3541 89.502 65.4951 89.7243 65.6759 89.9119C65.8567 90.0995 66.0736 90.2485 66.3134 90.35C66.5532 90.4516 66.811 90.5035 67.0714 90.5027C67.472 90.5176 67.8679 90.4122 68.2083 90.2001C68.5486 89.988 68.8179 89.6789 68.9814 89.3124C69.1449 88.946 69.1953 88.5389 69.126 88.1435C69.0567 87.7482 68.871 87.3826 68.5926 87.0938C68.3142 86.805 67.9559 86.6061 67.5638 86.5227C67.1716 86.4393 66.7635 86.4752 66.3919 86.6258C66.0203 86.7763 65.7022 87.0347 65.4783 87.3677C65.2545 87.7007 65.1353 88.0932 65.1359 88.4945Z" fill="#FF4C4C"/>
<path d="M74.7272 87.8735V90.7271C74.7305 90.7613 74.7266 90.7959 74.7158 90.8286C74.7049 90.8613 74.6874 90.8913 74.6643 90.9168C74.6411 90.9423 74.6129 90.9627 74.5815 90.9766C74.55 90.9905 74.516 90.9977 74.4816 90.9977C74.4472 90.9977 74.4132 90.9905 74.3818 90.9766C74.3503 90.9627 74.3221 90.9423 74.299 90.9168C74.2759 90.8913 74.2583 90.8613 74.2475 90.8286C74.2366 90.7959 74.2327 90.7613 74.236 90.7271V87.903C74.236 87.0462 73.7063 86.4864 72.9095 86.4864C72.7216 86.4784 72.534 86.5095 72.3587 86.5779C72.1835 86.6462 72.0243 86.7503 71.8913 86.8835C71.7582 87.0167 71.6543 87.176 71.586 87.3515C71.5178 87.527 71.4867 87.7148 71.4947 87.903V90.7271C71.498 90.7613 71.4941 90.7959 71.4832 90.8286C71.4724 90.8613 71.4548 90.8913 71.4317 90.9168C71.4086 90.9423 71.3804 90.9627 71.3489 90.9766C71.3175 90.9905 71.2835 90.9977 71.2491 90.9977C71.2147 90.9977 71.1807 90.9905 71.1492 90.9766C71.1178 90.9627 71.0896 90.9423 71.0664 90.9168C71.0433 90.8913 71.0258 90.8613 71.0149 90.8286C71.0041 90.7959 71.0002 90.7613 71.0035 90.7271V86.2711C71.0093 86.2099 71.0377 86.1532 71.0831 86.1119C71.1286 86.0706 71.1877 86.0477 71.2491 86.0477C71.3104 86.0477 71.3696 86.0706 71.415 86.1119C71.4604 86.1532 71.4888 86.2099 71.4947 86.2711V86.7244C71.6685 86.4949 71.8951 86.3108 72.1552 86.1877C72.4153 86.0646 72.7012 86.0061 72.9887 86.0172C74.0504 86.0172 74.7272 86.7357 74.7272 87.8667" fill="#FF4C4C"/>
<path d="M81.6837 90.6772C81.6839 90.7339 81.6629 90.7887 81.6247 90.8306C81.5866 90.8726 81.5341 90.8987 81.4777 90.9038C81.2816 90.9533 81.08 90.9769 80.8778 90.9741C79.9452 90.9741 79.4245 90.4619 79.4245 89.5485V86.5748H78.8043C78.7442 86.5748 78.6866 86.5509 78.6442 86.5084C78.6017 86.4659 78.5779 86.4083 78.5779 86.3481C78.5779 86.288 78.6017 86.2304 78.6442 86.1879C78.6866 86.1454 78.7442 86.1215 78.8043 86.1215H79.4245V84.961C79.4212 84.9262 79.4252 84.891 79.4363 84.8577C79.4473 84.8244 79.4652 84.7939 79.4887 84.7679C79.5123 84.742 79.541 84.7213 79.573 84.7071C79.605 84.6929 79.6396 84.6856 79.6746 84.6856C79.7097 84.6856 79.7443 84.6929 79.7763 84.7071C79.8083 84.7213 79.837 84.742 79.8606 84.7679C79.8841 84.7939 79.902 84.8244 79.913 84.8577C79.9241 84.891 79.9281 84.9262 79.9248 84.961V86.1215H81.2513C81.3114 86.1215 81.3689 86.1454 81.4114 86.1879C81.4538 86.2304 81.4777 86.288 81.4777 86.3481C81.4777 86.4083 81.4538 86.4659 81.4114 86.5084C81.3689 86.5509 81.3114 86.5748 81.2513 86.5748H79.9248V89.5213C79.9248 90.2012 80.2598 90.514 80.957 90.514C81.2038 90.514 81.3509 90.4641 81.4573 90.4641C81.486 90.4613 81.515 90.4645 81.5424 90.4736C81.5698 90.4826 81.595 90.4974 81.6163 90.5168C81.6377 90.5363 81.6547 90.56 81.6663 90.5864C81.6779 90.6129 81.6838 90.6415 81.6837 90.6704" fill="#FF4C4C"/>
<path d="M86.863 88.1795V88.2974C86.863 88.5036 86.7656 88.6215 86.5596 88.6215H82.8517C82.8561 88.8741 82.9102 89.1233 83.0109 89.355C83.1116 89.5866 83.257 89.7961 83.4386 89.9715C83.6203 90.1468 83.8347 90.2846 84.0696 90.3769C84.3045 90.4692 84.5552 90.5143 84.8075 90.5095C85.0768 90.5101 85.3434 90.4565 85.5916 90.3517C85.8397 90.247 86.0642 90.0933 86.2518 89.8998C86.2736 89.8707 86.3016 89.8467 86.3336 89.8295C86.3657 89.8123 86.4011 89.8022 86.4374 89.8001C86.4974 89.8001 86.555 89.8239 86.5974 89.8664C86.6399 89.9089 86.6637 89.9666 86.6637 90.0267C86.6619 90.0708 86.6504 90.114 86.6301 90.1531C86.6097 90.1923 86.581 90.2265 86.546 90.2534C86.3211 90.4838 86.0519 90.6663 85.7547 90.7897C85.4575 90.9132 85.1383 90.9752 84.8166 90.9718C84.4914 90.9767 84.1685 90.9162 83.8671 90.7939C83.5657 90.6717 83.2918 90.4901 83.0618 90.2599C82.8317 90.0298 82.6501 89.7558 82.5277 89.4541C82.4052 89.1524 82.3445 88.8292 82.3491 88.5036C82.3395 88.1835 82.3937 87.8648 82.5086 87.566C82.6235 87.2671 82.7969 86.9943 83.0184 86.7634C83.24 86.5325 83.5053 86.3481 83.7989 86.2212C84.0925 86.0942 84.4085 86.0272 84.7283 86.024C85.0131 86.0141 85.297 86.0632 85.562 86.1682C85.827 86.2732 86.0676 86.4318 86.2686 86.6341C86.4696 86.8364 86.6267 87.0781 86.7302 87.344C86.8336 87.6099 86.8811 87.8943 86.8697 88.1795H86.863ZM82.8811 88.1795H86.3695C86.3845 87.9575 86.3528 87.7348 86.2764 87.5259C86.1999 87.317 86.0804 87.1265 85.9256 86.9668C85.7709 86.8072 85.5843 86.6819 85.378 86.5991C85.1717 86.5164 84.9503 86.4779 84.7283 86.4864C84.268 86.4897 83.8249 86.6621 83.4832 86.9709C83.1414 87.2796 82.9248 87.7033 82.8743 88.1614" fill="#FF4C4C"/>
<path d="M91.6984 87.8939V90.727C91.6987 90.7596 91.6925 90.7918 91.6802 90.8219C91.6679 90.8521 91.6497 90.8794 91.6268 90.9024C91.6038 90.9254 91.5765 90.9436 91.5464 90.9559C91.5163 90.9682 91.4841 90.9744 91.4516 90.9741C91.4186 90.9747 91.3858 90.9688 91.3551 90.9567C91.3244 90.9446 91.2964 90.9266 91.2726 90.9036C91.2488 90.8807 91.2298 90.8533 91.2167 90.823C91.2035 90.7927 91.1964 90.7601 91.1958 90.727V90.1672C91.0051 90.4289 90.7529 90.6394 90.4615 90.7802C90.17 90.9209 89.8485 90.9875 89.5252 90.9741C88.5518 90.9741 87.8931 90.4528 87.8931 89.6845C87.8931 88.9161 88.5405 88.4152 89.5433 88.4152H91.1936V87.8735C91.1936 86.9986 90.7114 86.4864 89.8874 86.4864C89.6358 86.4883 89.3878 86.5468 89.1618 86.6574C88.9357 86.768 88.7373 86.928 88.5812 87.1256C88.556 87.1558 88.5245 87.1801 88.4889 87.197C88.4534 87.2138 88.4146 87.2227 88.3752 87.223C88.3186 87.2232 88.2639 87.2022 88.222 87.164C88.18 87.1258 88.154 87.0733 88.1489 87.0168C88.1548 86.9301 88.1937 86.849 88.2575 86.7901C88.4586 86.5448 88.7126 86.3483 89.0003 86.2152C89.2881 86.0822 89.6022 86.016 89.9191 86.0218C91.0283 86.0218 91.6984 86.7199 91.6984 87.8916V87.8939ZM91.1981 89.102V88.8413H89.5954C88.828 88.8413 88.4069 89.1473 88.4069 89.6777C88.4069 90.208 88.8597 90.5435 89.575 90.5435C90.4805 90.5435 91.1958 89.9043 91.1958 89.1065" fill="#FF4C4C"/>
<path d="M100.208 87.8735V90.727C100.202 90.7894 100.173 90.8472 100.126 90.8893C100.08 90.9314 100.02 90.9548 99.9574 90.9548C99.8949 90.9548 99.8346 90.9314 99.7884 90.8893C99.7421 90.8472 99.7132 90.7894 99.7073 90.727V87.9143C99.7073 87.0394 99.216 86.4887 98.4486 86.4887C98.2689 86.4832 98.0899 86.5141 97.9224 86.5795C97.7548 86.645 97.6022 86.7436 97.4737 86.8695C97.3452 86.9955 97.2434 87.1461 97.1744 87.3124C97.1054 87.4787 97.0707 87.6572 97.0723 87.8372V90.7293C97.0756 90.7636 97.0717 90.7982 97.0608 90.8308C97.05 90.8635 97.0324 90.8936 97.0093 90.9191C96.9862 90.9446 96.958 90.9649 96.9265 90.9789C96.8951 90.9928 96.8611 91 96.8267 91C96.7923 91 96.7583 90.9928 96.7268 90.9789C96.6954 90.9649 96.6672 90.9446 96.6441 90.9191C96.6209 90.8936 96.6034 90.8635 96.5925 90.8308C96.5817 90.7982 96.5778 90.7636 96.5811 90.7293V87.9143C96.5811 87.0485 96.0808 86.4887 95.3134 86.4887C95.1273 86.4839 94.9422 86.518 94.77 86.5886C94.5977 86.6592 94.4419 86.7648 94.3125 86.8988C94.1832 87.0329 94.083 87.1923 94.0183 87.3671C93.9537 87.5419 93.926 87.7282 93.9371 87.9143V90.727C93.9404 90.7613 93.9364 90.7959 93.9256 90.8286C93.9148 90.8613 93.8972 90.8913 93.8741 90.9168C93.851 90.9423 93.8228 90.9626 93.7913 90.9766C93.7599 90.9905 93.7258 90.9977 93.6915 90.9977C93.6571 90.9977 93.623 90.9905 93.5916 90.9766C93.5601 90.9626 93.5319 90.9423 93.5088 90.9168C93.4857 90.8913 93.4681 90.8613 93.4573 90.8286C93.4464 90.7959 93.4425 90.7613 93.4458 90.727V86.2711C93.4517 86.2099 93.4801 86.1532 93.5255 86.1119C93.5709 86.0706 93.6301 86.0477 93.6915 86.0477C93.7528 86.0477 93.812 86.0706 93.8574 86.1119C93.9028 86.1532 93.9312 86.2099 93.9371 86.2711V86.7244C94.1027 86.4989 94.3209 86.3174 94.5726 86.1957C94.8243 86.0741 95.102 86.0159 95.3813 86.0263C95.6956 86.0052 96.0085 86.0829 96.2765 86.2488C96.5444 86.4146 96.7538 86.6601 96.8754 86.951C97.0396 86.6625 97.2791 86.4241 97.5681 86.2613C97.8572 86.0984 98.185 86.0172 98.5166 86.0263C99.5488 86.0263 100.208 86.7357 100.208 87.8758" fill="#FF4C4C"/>
<path d="M37.2334 29.2752C37.624 29.9522 37.8054 30.7299 37.7545 31.5101C37.7036 32.2903 37.4228 33.0378 36.9475 33.6582C36.4723 34.2786 35.8239 34.7439 35.0845 34.9953C34.3451 35.2468 33.5479 35.273 32.7936 35.0707C32.0393 34.8684 31.3618 34.4467 30.8469 33.8589C30.332 33.2711 30.0028 32.5436 29.9009 31.7685C29.7989 30.9933 29.9289 30.2053 30.2743 29.5041C30.6197 28.8029 31.165 28.22 31.8413 27.8291C32.7479 27.3051 33.8252 27.1631 34.8364 27.4343C35.8476 27.7054 36.7098 28.3676 37.2334 29.2752Z" fill="#FF4C4C"/>
<path d="M56.5384 35.2837C54.9887 35.2815 53.446 35.0758 51.9499 34.6717C47.5024 33.4751 43.6998 30.5822 41.3565 26.6128C39.0132 22.6434 38.3155 17.913 39.4129 13.4349C40.5104 8.9568 43.3156 5.087 47.2278 2.65439C51.14 0.22178 55.8481 -0.580209 60.3437 0.420198C60.7764 0.508078 61.1873 0.681479 61.5523 0.930256C61.9173 1.17903 62.2291 1.49819 62.4694 1.86906C62.7097 2.23993 62.8738 2.65506 62.952 3.09017C63.0301 3.52528 63.0208 3.97163 62.9247 4.4031C62.8285 4.83458 62.6473 5.24252 62.3918 5.60305C62.1363 5.96359 61.8115 6.26949 61.4365 6.50284C61.0614 6.7362 60.6437 6.89233 60.2077 6.96211C59.7717 7.03189 59.3262 7.01391 58.8972 6.90922C56.817 6.44489 54.6468 6.59693 52.6514 7.3468C50.6561 8.09666 48.9219 9.41191 47.6606 11.132C46.3993 12.8521 45.6654 14.9026 45.5485 17.0333C45.4316 19.164 45.9367 21.2827 47.0022 23.1308C48.0678 24.9789 49.6476 26.4764 51.5489 27.4406C53.4502 28.4048 55.5907 28.794 57.7092 28.5606C59.8277 28.3272 61.8325 27.4814 63.4789 26.1263C65.1253 24.7713 66.3422 22.9657 66.9809 20.9299C67.1114 20.5132 67.3226 20.1263 67.6024 19.7913C67.8822 19.4563 68.2252 19.1798 68.6118 18.9776C69.3925 18.5691 70.3033 18.4878 71.1438 18.7517C71.56 18.8824 71.9464 19.0939 72.281 19.374C72.6155 19.6542 72.8917 19.9976 73.0937 20.3847C73.2957 20.7717 73.4196 21.1948 73.4583 21.6298C73.497 22.0648 73.4498 22.5032 73.3193 22.9199C72.1962 26.4975 69.9647 29.6243 66.9481 31.8473C63.9314 34.0702 60.2862 35.2738 56.5406 35.2837" fill="#FF4C4C"/>
<path d="M72.5247 8.87428C72.91 9.54223 73.0915 10.3085 73.0469 11.0785C73.0023 11.8485 72.7336 12.5887 72.2738 13.2076C71.8141 13.8265 71.1834 14.2971 70.4597 14.5614C69.7359 14.8256 68.9508 14.872 68.201 14.6947C68.0144 14.6242 67.824 14.5644 67.6306 14.5156L67.7166 14.5496C67.6906 14.5406 67.6642 14.5331 67.6374 14.527C66.078 14.1105 64.4173 14.3299 63.0192 15.1371C61.6211 15.9443 60.5996 17.2734 60.1784 18.8333C60.1702 18.8602 60.1634 18.8874 60.1581 18.9149C60.1581 18.8855 60.1581 18.8537 60.1716 18.822C60.1176 19.0143 60.0745 19.2095 60.0426 19.4068C59.8216 20.1492 59.3876 20.8102 58.7944 21.3077C58.2013 21.8052 57.4753 22.1172 56.7065 22.205C55.9378 22.2928 55.1602 22.1524 54.4704 21.8014C53.7807 21.4504 53.2091 20.9042 52.8268 20.2307C52.4445 19.5571 52.2683 18.786 52.3201 18.013C52.3719 17.2401 52.6495 16.4994 53.1182 15.883C53.5869 15.2667 54.2262 14.8018 54.9567 14.5462C55.6871 14.2906 56.4764 14.2555 57.2266 14.4454C57.376 14.4998 57.5276 14.5474 57.6793 14.5904C58.4587 14.8058 59.273 14.8638 60.075 14.7612C60.877 14.6585 61.6506 14.3972 62.3508 13.9925C63.051 13.5878 63.6638 13.0477 64.1536 12.4036C64.6434 11.7596 65.0004 11.0244 65.2039 10.241C65.2446 10.0869 65.2786 9.93048 65.308 9.77182C65.5182 9.02385 65.944 8.35454 66.5322 7.84765C67.1204 7.34076 67.8448 7.01879 68.6148 6.92202C69.3848 6.82526 70.1662 6.958 70.8613 7.30363C71.5563 7.64927 72.1342 8.19245 72.5224 8.86522" fill="#FF4C4C"/>
</svg>
