<svg width="122" height="26" viewBox="0 0 122 26" fill="none" xmlns="http://www.w3.org/2000/svg">
<g clip-path="url(#clip0_1015_6631)">
<path fill-rule="evenodd" clip-rule="evenodd" d="M96.5424 18.7171V2.37C96.5424 1.00714 97.5238 0 98.8852 0C100.221 0 101.228 1.00857 101.228 2.37V18.7171C101.228 20.08 100.219 21.0886 98.8852 21.0886C97.5509 21.0886 96.5424 20.08 96.5424 18.7171ZM80.0037 9.017C80.0037 10.2699 79.1865 11.1156 77.8508 11.3027C76.1622 11.5484 75.3437 12.5884 75.3437 14.5456V18.7141C75.3437 20.077 74.3351 21.0841 73.0008 21.0841C71.6665 21.0841 70.658 20.0756 70.658 18.7141V9.17558C70.658 7.81272 71.638 6.80558 72.9437 6.80558C73.4261 6.79638 73.8982 6.94607 74.2872 7.23157C74.6763 7.51708 74.9606 7.92256 75.0965 8.38558C75.8594 7.45986 76.868 6.91415 77.9537 6.91415C79.1522 6.91415 79.9965 7.75843 79.9965 9.01129L80.0037 9.017ZM46.0826 6.80566C41.8869 6.80566 38.644 9.94852 38.644 13.9485C38.644 17.9542 41.8869 21.0885 46.0826 21.0871C48.4812 21.0871 50.4426 20.1342 51.614 18.39C51.8492 18.0449 51.9729 17.6361 51.9683 17.2185C51.9584 16.7962 51.8225 16.3866 51.5783 16.0419C51.334 15.6973 50.9925 15.4335 50.5974 15.2842C50.2022 15.1348 49.7715 15.1069 49.3604 15.2039C48.9493 15.3009 48.5765 15.5184 48.2898 15.8285C48.0169 16.1285 47.6846 16.3682 47.3139 16.5326C46.9432 16.6969 46.5424 16.7821 46.1369 16.7828C44.5012 16.7828 43.4398 15.66 43.4398 13.9442C43.4398 12.2285 44.5026 11.1114 46.1369 11.1114C47.004 11.1114 47.7726 11.4385 48.2898 12.0657C48.6712 12.53 49.1826 12.7471 49.8969 12.7471C50.1691 12.7473 50.4387 12.6938 50.6902 12.5897C50.9417 12.4855 51.1701 12.3328 51.3625 12.1403C51.555 11.9478 51.7075 11.7192 51.8114 11.4676C51.9154 11.216 51.9687 10.9464 51.9683 10.6742C51.9683 10.2657 51.8326 9.88424 51.5326 9.42138C50.524 7.86852 48.2898 6.80566 46.0826 6.80566ZM60.8495 21.0914C65.0181 21.0914 68.2881 17.9271 68.2881 13.9485C68.2881 9.96709 65.0181 6.80566 60.8495 6.80566C56.681 6.80566 53.4381 9.93852 53.4381 13.9485C53.4381 17.9585 56.681 21.0914 60.8495 21.0914ZM60.8767 16.7828C59.2967 16.7828 58.2338 15.6385 58.2338 13.9485C58.2338 12.2585 59.3238 11.1157 60.8767 11.1157C62.3753 11.1157 63.4924 12.3128 63.4924 13.9485C63.4924 15.5842 62.4024 16.7828 60.8767 16.7828ZM93.5995 18.7473V12.8601L93.5952 12.8616C93.5952 8.99299 91.3609 6.81299 87.3281 6.81299C85.3395 6.81299 83.5938 7.33156 82.4509 8.25727C81.7966 8.77585 81.4424 9.40156 81.4424 10.083C81.4425 10.338 81.4937 10.5904 81.593 10.8253C81.6922 11.0602 81.8376 11.2729 82.0204 11.4507C82.2033 11.6284 82.4199 11.7678 82.6575 11.8604C82.8951 11.9531 83.1489 11.9972 83.4038 11.9901C83.8124 11.9901 84.1109 11.8816 84.6567 11.5273C85.2884 11.0868 86.0393 10.8491 86.8095 10.8458C88.1452 10.8458 88.9081 11.473 88.9081 12.5901V12.8087H86.0509C82.6995 12.8087 80.7109 14.3344 80.7109 16.8958C80.7109 19.403 82.6195 21.0916 85.4252 21.0916C86.9538 21.0916 88.2852 20.6001 89.2395 19.7287C89.4169 20.1346 89.7114 20.4783 90.0852 20.716C90.459 20.9537 90.8952 21.0745 91.3381 21.063C92.6452 21.063 93.5995 20.083 93.5995 18.7473ZM88.9081 15.6687V15.7773L88.9138 15.7787C88.9138 16.9773 88.0695 17.7673 86.8438 17.7673C85.9709 17.7673 85.4538 17.3858 85.4538 16.7044C85.4538 16.0501 85.9166 15.6687 86.7066 15.6687H88.9081ZM117.55 10.19C117.738 9.84688 117.84 9.46386 117.85 9.07289H117.849C117.842 8.47508 117.602 7.90354 117.179 7.4808C116.756 7.05807 116.185 6.81778 115.587 6.81146C115.157 6.80846 114.735 6.93035 114.372 7.16235C114.009 7.39435 113.722 7.72652 113.544 8.11861L110.491 14.8215L107.521 8.11861C107.348 7.72314 107.062 7.38789 106.698 7.15522C106.335 6.92255 105.91 6.80292 105.479 6.81146C104.881 6.81778 104.309 7.05807 103.886 7.4808C103.464 7.90354 103.223 8.47508 103.217 9.07289C103.227 9.46385 103.33 9.84685 103.517 10.19L107.85 19.5629L107.469 20.4072C106.979 21.4686 106.297 21.7957 105.234 21.7957H105.153C103.98 21.7957 103.054 22.6415 103.054 23.8129C103.045 24.1721 103.134 24.527 103.312 24.8392C103.489 25.1514 103.749 25.4091 104.063 25.5843C104.526 25.85 105.18 25.9929 105.943 25.9929C108.559 25.9929 110.276 24.6857 111.883 21.4972L117.55 10.19ZM119.761 19.4155C119.757 19.4861 119.727 19.5528 119.676 19.6017C119.625 19.6506 119.557 19.6781 119.486 19.6784C119.434 19.6796 119.383 19.667 119.337 19.6419C119.292 19.6168 119.253 19.5801 119.226 19.5355L118.835 18.9484H118.531V19.3869C118.531 19.464 118.5 19.538 118.446 19.5925C118.391 19.647 118.317 19.6777 118.24 19.6777C118.163 19.6777 118.089 19.647 118.034 19.5925C117.98 19.538 117.949 19.464 117.949 19.3869V17.7041C117.948 17.6651 117.955 17.6263 117.969 17.5901C117.984 17.5538 118.005 17.5209 118.033 17.4933C118.06 17.4658 118.093 17.4441 118.13 17.4298C118.166 17.4154 118.205 17.4086 118.244 17.4098H118.825C119.335 17.4098 119.682 17.7212 119.682 18.1727C119.685 18.2901 119.658 18.4063 119.606 18.5115C119.554 18.6167 119.477 18.7078 119.382 18.7769L119.676 19.1927C119.726 19.2568 119.754 19.3346 119.758 19.4155H119.761ZM118.528 18.4398H118.825C118.894 18.4398 118.961 18.4123 119.01 18.3632C119.059 18.3142 119.086 18.2477 119.086 18.1784C119.086 18.109 119.059 18.0425 119.01 17.9935C118.961 17.9445 118.894 17.9169 118.825 17.9169H118.528V18.4398ZM120.932 19.9147C121.194 19.5015 121.327 19.0193 121.314 18.5301C121.312 18.2115 121.247 17.8964 121.123 17.603C120.999 17.3097 120.817 17.0441 120.589 16.8215C120.361 16.599 120.091 16.424 119.795 16.3068C119.499 16.1895 119.182 16.1324 118.864 16.1386C118.374 16.1371 117.895 16.2817 117.489 16.5539C117.082 16.8261 116.766 17.2135 116.58 17.6666C116.395 18.1196 116.349 18.6176 116.449 19.0968C116.548 19.5761 116.788 20.0147 117.139 20.3566C117.489 20.6985 117.933 20.928 118.415 21.0159C118.896 21.1037 119.393 21.0458 119.841 20.8497C120.29 20.6535 120.669 20.3279 120.932 19.9147ZM118.878 20.4401C117.798 20.4401 117.011 19.5944 117.011 18.5301L117.006 18.5286C117.006 17.4758 117.799 16.6186 118.864 16.6186C119.928 16.6186 120.701 17.4944 120.701 18.5444C120.701 19.5944 119.928 20.4401 118.878 20.4401Z" fill="#FF4C4C"/>
<path fill-rule="evenodd" clip-rule="evenodd" d="M17.6094 24.1C16.6315 24.0986 15.6579 23.969 14.7137 23.7143C11.907 22.96 9.5073 21.1367 8.0285 18.6348C6.5497 16.1329 6.10942 13.1514 6.80199 10.3288C7.49455 7.50627 9.26487 5.06716 11.7338 3.53389C14.2027 2.00063 17.1738 1.49514 20.0109 2.12569C20.284 2.18108 20.5433 2.29037 20.7736 2.44718C21.0039 2.60398 21.2007 2.80514 21.3524 3.0389C21.504 3.27266 21.6076 3.53431 21.6569 3.80856C21.7062 4.08281 21.7004 4.36414 21.6397 4.6361C21.579 4.90805 21.4646 5.16518 21.3034 5.39242C21.1421 5.61966 20.9372 5.81247 20.7005 5.95955C20.4638 6.10664 20.2002 6.20505 19.9251 6.24903C19.6499 6.29301 19.3687 6.28167 19.098 6.21569C17.7852 5.92302 16.4157 6.01886 15.1565 6.49149C13.8973 6.96413 12.8029 7.79312 12.0069 8.87729C11.2109 9.96145 10.7478 11.2539 10.674 12.5969C10.6002 13.9398 10.919 15.2752 11.5914 16.4401C12.2638 17.6049 13.2608 18.5488 14.4607 19.1565C15.6605 19.7643 17.0114 20.0095 18.3483 19.8624C19.6852 19.7153 20.9504 19.1822 21.9894 18.3282C23.0284 17.4741 23.7964 16.336 24.1994 15.0528C24.2818 14.7902 24.4151 14.5463 24.5917 14.3352C24.7683 14.1241 24.9847 13.9498 25.2287 13.8223C25.7214 13.5648 26.2962 13.5136 26.8266 13.68C27.0892 13.7623 27.3331 13.8956 27.5442 14.0722C27.7553 14.2488 27.9296 14.4653 28.0571 14.7092C28.1846 14.9532 28.2628 15.2198 28.2872 15.494C28.3116 15.7682 28.2818 16.0445 28.1994 16.3071C27.4907 18.5621 26.0825 20.5329 24.1787 21.934C22.275 23.3351 19.9746 24.0937 17.6109 24.1H17.6094ZM5.42668 20.313C5.6732 20.7397 5.78763 21.2299 5.75551 21.7217C5.7234 22.2134 5.54617 22.6846 5.24625 23.0756C4.94633 23.4666 4.53718 23.7599 4.07057 23.9184C3.60395 24.0769 3.10081 24.0934 2.62479 23.9659C2.14878 23.8384 1.72126 23.5726 1.39632 23.2021C1.07138 22.8316 0.863604 22.3731 0.799275 21.8845C0.734946 21.396 0.816952 20.8993 1.03492 20.4573C1.25289 20.0153 1.59704 19.6479 2.02383 19.4016C2.59596 19.0713 3.27585 18.9818 3.91397 19.1527C4.5521 19.3236 5.09622 19.741 5.42668 20.313ZM28.0279 8.84379C28.056 8.35845 27.9415 7.87548 27.6983 7.45448L27.6969 7.44876C27.4519 7.02472 27.0872 6.68236 26.6486 6.4645C26.21 6.24665 25.7168 6.16299 25.2309 6.22398C24.745 6.28497 24.2878 6.4879 23.9166 6.80739C23.5454 7.12689 23.2767 7.54875 23.1441 8.02019C23.1255 8.12019 23.1041 8.21876 23.0783 8.31591C22.9499 8.80971 22.7246 9.27306 22.4155 9.679C22.1064 10.0849 21.7197 10.4254 21.2778 10.6805C20.8359 10.9356 20.3477 11.1003 19.8416 11.165C19.3355 11.2297 18.8216 11.1931 18.3298 11.0573C18.2341 11.0302 18.1383 11.0002 18.0441 10.9659C17.5706 10.8463 17.0725 10.8684 16.6116 11.0295C16.1506 11.1906 15.7472 11.4836 15.4514 11.872C15.1556 12.2605 14.9804 12.7274 14.9477 13.2146C14.915 13.7018 15.0262 14.1878 15.2675 14.6124C15.5087 15.0369 15.8694 15.3812 16.3047 15.6024C16.74 15.8236 17.2307 15.9121 17.7159 15.8568C18.201 15.8014 18.6592 15.6048 19.0335 15.2912C19.4078 14.9776 19.6817 14.561 19.8212 14.093C19.8399 13.9771 19.8649 13.8623 19.8958 13.7491C19.8941 13.7607 19.8941 13.7721 19.8941 13.783C19.8974 13.7657 19.9017 13.7485 19.9069 13.7316C20.1727 12.7484 20.8173 11.9107 21.6997 11.4019C22.582 10.8931 23.63 10.7548 24.6141 11.0173C24.631 11.0212 24.6477 11.0259 24.6641 11.0316L24.6098 11.0102C24.7318 11.0409 24.852 11.0786 24.9698 11.123C25.4429 11.2348 25.9384 11.2056 26.3952 11.039C26.8519 10.8724 27.2499 10.5758 27.54 10.1857C27.8302 9.79564 27.9998 9.32914 28.0279 8.84379Z" fill="#FF4C4C"/>
</g>
<defs>
<clipPath id="clip0_1015_6631">
<rect width="120.714" height="26" fill="white" transform="translate(0.642822)"/>
</clipPath>
</defs>
</svg>
