<svg width="50" height="50" viewBox="0 0 50 50" fill="none" xmlns="http://www.w3.org/2000/svg">
<path d="M10.4336 36.503C10.8278 37.1853 11.0109 37.9692 10.9596 38.7555C10.9082 39.5418 10.6249 40.2953 10.1453 40.9205C9.66578 41.5458 9.01159 42.0148 8.26547 42.2683C7.51936 42.5218 6.71483 42.5483 5.95365 42.3445C5.19246 42.1407 4.5088 41.7157 3.98914 41.1234C3.46947 40.531 3.13714 39.7979 3.03417 39.0167C2.93119 38.2354 3.0622 37.4412 3.41063 36.7344C3.75906 36.0276 4.30926 35.4401 4.99164 35.046C5.90644 34.518 6.99348 34.3748 8.01378 34.6481C9.03408 34.9213 9.90414 35.5885 10.4327 36.503" fill="#FF4C4C"/>
<path d="M29.9126 42.558C27.4136 42.5601 24.9423 42.0354 22.6597 41.018C20.3771 40.0007 18.3347 38.5136 16.6656 36.6537C14.9965 34.7938 13.7382 32.603 12.9729 30.2241C12.2075 27.8451 11.9523 25.3316 12.2238 22.8474C12.4953 20.3632 13.2874 17.9641 14.5486 15.8067C15.8097 13.6492 17.5115 11.7819 19.543 10.3265C21.5744 8.87102 23.8899 7.8602 26.3383 7.35991C28.7867 6.85963 31.3131 6.88112 33.7526 7.42299C34.6166 7.60667 35.3731 8.12404 35.8577 8.86258C36.3422 9.60113 36.5155 10.5011 36.34 11.3668C36.1644 12.2324 35.6542 12.9938 34.9202 13.4852C34.1862 13.9767 33.2879 14.1584 32.4206 13.991C32.3781 13.9827 32.3357 13.9734 32.2936 13.963C30.1946 13.4951 28.0048 13.6483 25.9914 14.4041C23.9781 15.1598 22.2282 16.4853 20.9555 18.2189C19.6829 19.9524 18.9423 22.0189 18.8244 24.1662C18.7065 26.3135 19.2162 28.4487 20.2914 30.3112C21.3665 32.1736 22.9606 33.6828 24.8791 34.6545C26.7976 35.6262 28.9575 36.0184 31.0951 35.7832C33.2328 35.548 35.2557 34.6956 36.917 33.33C38.5783 31.9644 39.8062 30.1447 40.4506 28.093C40.5824 27.6728 40.7955 27.2826 41.0781 26.9448C41.3606 26.6069 41.7068 26.328 42.0971 26.124C42.4874 25.92 42.9141 25.7949 43.3527 25.7557C43.7914 25.7166 44.2334 25.7643 44.6536 25.896C45.0739 26.0277 45.464 26.2409 45.8019 26.5234C46.1397 26.8059 46.4186 27.1522 46.6226 27.5425C46.8266 27.9328 46.9518 28.3594 46.9909 28.7981C47.03 29.2367 46.9824 29.6788 46.8506 30.099C45.7169 33.7042 43.4651 36.8549 40.4214 39.095C37.3776 41.3351 33.6999 42.5483 29.9206 42.559" fill="#FF4C4C"/>
<path d="M46.0437 15.943C46.4327 16.6162 46.616 17.3885 46.5711 18.1647C46.5263 18.9408 46.2551 19.6869 45.7911 20.3107C45.3271 20.9345 44.6906 21.4089 43.9602 21.6751C43.2297 21.9414 42.4373 21.9879 41.6807 21.809C41.4922 21.7381 41.2999 21.678 41.1047 21.629L41.1917 21.663C41.1654 21.6539 41.1387 21.6462 41.1117 21.64C39.5382 21.2205 37.8627 21.4417 36.4521 22.2552C35.0414 23.0687 34.0107 24.4081 33.5857 25.98C33.5773 26.007 33.5703 26.0343 33.5647 26.062C33.5627 26.03 33.5675 25.998 33.5787 25.968C33.5242 26.1617 33.4808 26.3584 33.4487 26.557C33.2257 27.3053 32.7878 27.9717 32.1893 28.4732C31.5908 28.9747 30.8582 29.2893 30.0823 29.3779C29.3065 29.4664 28.5218 29.3251 27.8257 28.9713C27.1296 28.6176 26.5528 28.0671 26.1669 27.3883C25.781 26.7094 25.6032 25.9322 25.6554 25.1531C25.7076 24.374 25.9877 23.6274 26.4607 23.0061C26.9337 22.3849 27.5788 21.9163 28.3159 21.6587C29.0531 21.401 29.8496 21.3657 30.6067 21.557C30.7577 21.612 30.9067 21.657 31.0637 21.703C32.6369 22.1371 34.3182 21.9285 35.7376 21.123C37.1571 20.3175 38.1984 18.9812 38.6327 17.408L38.6567 17.319C38.6977 17.164 38.7317 17.006 38.7617 16.846C38.9735 16.092 39.4031 15.4172 39.9966 14.9062C40.5901 14.3951 41.3212 14.0705 42.0983 13.9729C42.8754 13.8753 43.6641 14.0092 44.3655 14.3576C45.0669 14.7061 45.65 15.2538 46.0417 15.932" fill="#FF4C4C"/>
</svg>
