<svg width="135" height="135" viewBox="0 0 135 135" fill="none" xmlns="http://www.w3.org/2000/svg">
<path d="M67.4512 115.948C54.4972 115.948 42.3184 110.903 33.1586 101.743C23.9986 92.5835 18.9541 80.4046 18.9541 67.4508C18.9541 54.4967 23.9986 42.3179 33.1586 33.1581C42.3184 23.9981 54.4972 18.9536 67.4512 18.9536C75.3001 18.9536 83.0976 20.8729 90.0004 24.5043C91.6452 25.3697 92.277 27.4044 91.4118 29.0491C90.5466 30.6937 88.5121 31.3257 86.8669 30.4607C80.9265 27.3357 74.2127 25.6838 67.4512 25.6838C44.4208 25.6838 25.6843 44.4204 25.6843 67.4508C25.6843 90.4811 44.4208 109.218 67.4512 109.218C90.4816 109.218 109.218 90.4811 109.218 67.4508C109.218 65.6728 109.106 63.8839 108.883 62.1343C108.649 60.2906 109.954 58.6061 111.798 58.3719C113.641 58.1373 115.326 59.4426 115.56 61.2863C115.818 63.3162 115.948 65.3903 115.948 67.4508C115.948 80.4046 110.904 92.5835 101.744 101.743C92.584 110.903 80.4051 115.948 67.4512 115.948Z" fill="#E6E6E6"/>
<path d="M67.4512 115.948C54.4972 115.948 42.3184 110.903 33.1586 101.743C23.9986 92.5835 18.9541 80.4046 18.9541 67.4508C18.9541 54.4967 23.9986 42.3179 33.1586 33.1581C42.3184 23.9981 54.4972 18.9536 67.4512 18.9536C75.3001 18.9536 83.0976 20.8729 90.0004 24.5043C91.6452 25.3697 92.277 27.4044 91.4118 29.0491C90.5466 30.6937 88.5121 31.3257 86.8669 30.4607C80.9265 27.3357 74.2127 25.6838 67.4512 25.6838C44.4208 25.6838 25.6843 44.4204 25.6843 67.4508C25.6843 90.4811 44.4208 109.218 67.4512 109.218C90.4816 109.218 109.218 90.4811 109.218 67.4508C109.218 65.6728 109.106 63.8839 108.883 62.1343C108.649 60.2906 109.954 58.6061 111.798 58.3719C113.641 58.1373 115.326 59.4426 115.56 61.2863C115.818 63.3162 115.948 65.3903 115.948 67.4508C115.948 80.4046 110.904 92.5835 101.744 101.743C92.584 110.903 80.4051 115.948 67.4512 115.948Z" fill="#E6E6E6"/>
<path d="M111.875 33.3632C110.576 32.0338 108.446 32.0089 107.116 33.3074L66.7388 72.7502L54.8382 60.8498C53.5241 59.5357 51.3936 59.5357 50.0794 60.8498C48.7652 62.164 48.7652 64.2947 50.0794 65.6089L64.3316 79.8611C65.6349 81.1644 67.744 81.1767 69.0623 79.8888L111.819 38.1219C113.148 36.8232 113.174 34.6926 111.875 33.3632Z" fill="#E6E6E6"/>
<path d="M112.201 61.5266C113.387 70.4809 111.908 79.8745 107.38 88.4652C95.7574 110.513 68.4202 118.977 46.3727 107.355C24.3253 95.7323 15.8609 68.3951 27.4832 46.3477C39.1056 24.3002 66.4428 15.8358 88.4902 27.4582" stroke="#2CCFBC" stroke-width="6.68243" stroke-linecap="round"/>
<path d="M52.501 63.2842L66.7356 77.4676C66.7356 77.4676 73.1154 71.2476 80.9495 63.6096" stroke="#2CCFBC" stroke-width="6.75" stroke-linecap="round" stroke-linejoin="round"/>
</svg>
